<svg width="38" height="39" viewBox="0 0 38 39" fill="none" xmlns="http://www.w3.org/2000/svg">
<rect y="0.653809" width="37.9226" height="37.9226" rx="6" fill="black"/>
<path d="M18.9581 15.5987C16.7465 15.5987 14.9416 17.4035 14.9416 19.6152C14.9416 21.8268 16.7465 23.6316 18.9581 23.6316C21.1697 23.6316 22.9746 21.8268 22.9746 19.6152C22.9746 17.4035 21.1697 15.5987 18.9581 15.5987ZM31.0046 19.6152C31.0046 17.9519 31.0196 16.3037 30.9262 14.6435C30.8328 12.7151 30.3929 11.0036 28.9827 9.5935C27.5696 8.18035 25.8612 7.74345 23.9328 7.65004C22.2695 7.55663 20.6213 7.5717 18.9611 7.5717C17.2979 7.5717 15.6497 7.55663 13.9894 7.65004C12.061 7.74345 10.3496 8.18336 8.93945 9.5935C7.5263 11.0067 7.08939 12.7151 6.99599 14.6435C6.90258 16.3067 6.91764 17.9549 6.91764 19.6152C6.91764 21.2754 6.90258 22.9266 6.99599 24.5868C7.08939 26.5152 7.52931 28.2267 8.93945 29.6368C10.3526 31.05 12.061 31.4869 13.9894 31.5803C15.6527 31.6737 17.3009 31.6586 18.9611 31.6586C20.6243 31.6586 22.2725 31.6737 23.9328 31.5803C25.8612 31.4869 27.5726 31.0469 28.9827 29.6368C30.3959 28.2236 30.8328 26.5152 30.9262 24.5868C31.0226 22.9266 31.0046 21.2784 31.0046 19.6152ZM18.9581 25.7951C15.5382 25.7951 12.7782 23.035 12.7782 19.6152C12.7782 16.1953 15.5382 13.4352 18.9581 13.4352C22.378 13.4352 25.138 16.1953 25.138 19.6152C25.138 23.035 22.378 25.7951 18.9581 25.7951ZM25.3911 14.6254C24.5926 14.6254 23.9478 13.9806 23.9478 13.1821C23.9478 12.3837 24.5926 11.7388 25.3911 11.7388C26.1896 11.7388 26.8344 12.3837 26.8344 13.1821C26.8346 13.3717 26.7975 13.5595 26.725 13.7347C26.6526 13.91 26.5463 14.0692 26.4122 14.2032C26.2781 14.3373 26.1189 14.4436 25.9437 14.516C25.7685 14.5885 25.5807 14.6257 25.3911 14.6254Z" fill="white"/>
</svg>
