<svg width="39" height="39" viewBox="0 0 39 39" fill="none" xmlns="http://www.w3.org/2000/svg">
<rect x="0.464111" y="0.405273" width="37.9226" height="37.9226" rx="6" fill="black"/>
<path d="M10.4164 13.2285C11.9908 13.2285 13.2672 11.9521 13.2672 10.3777C13.2672 8.80321 11.9908 7.52686 10.4164 7.52686C8.8419 7.52686 7.56555 8.80321 7.56555 10.3777C7.56555 11.9521 8.8419 13.2285 10.4164 13.2285Z" fill="white"/>
<path d="M15.9589 15.3889V31.2052H20.8697V23.3837C20.8697 21.3199 21.2579 19.3212 23.8169 19.3212C26.3407 19.3212 26.3719 21.6808 26.3719 23.514V31.2065H31.2853V22.5329C31.2853 18.2723 30.368 14.998 25.3882 14.998C22.9973 14.998 21.3947 16.3101 20.7394 17.5518H20.6729V15.3889H15.9589ZM7.9563 15.3889H12.8749V31.2052H7.9563V15.3889Z" fill="white"/>
</svg>
