<svg width="39" height="39" viewBox="0 0 39 39" fill="none" xmlns="http://www.w3.org/2000/svg">
<rect x="0.613403" y="0.405273" width="37.9226" height="37.9226" rx="6" fill="black"/>
<path d="M24.7284 16.9328C24.8991 16.9328 25.0698 16.9386 25.2376 16.9473C24.5317 13.2241 20.6581 10.3774 15.9831 10.3774C10.8105 10.3774 6.61572 13.8663 6.61572 18.171C6.61572 20.5172 7.87704 22.6319 9.85292 24.0611C9.93442 24.1186 10.0009 24.1949 10.0467 24.2835C10.0925 24.3721 10.1163 24.4704 10.1162 24.5702C10.1162 24.6396 10.1017 24.7033 10.0844 24.7698C9.92525 25.3571 9.67356 26.2973 9.66199 26.3407C9.64174 26.4159 9.61281 26.4911 9.61281 26.5692C9.61281 26.7399 9.75167 26.8817 9.92525 26.8817C9.99178 26.8817 10.0468 26.8556 10.1046 26.8238L12.1557 25.6406C12.309 25.5509 12.4739 25.496 12.6533 25.496C12.7459 25.496 12.8384 25.5104 12.9281 25.5365C13.8857 25.8113 14.9185 25.9646 15.986 25.9646C16.1595 25.9646 16.3302 25.9617 16.5009 25.953C16.2955 25.3455 16.1856 24.7062 16.1856 24.0437C16.1856 20.1151 20.01 16.9328 24.7284 16.9328ZM19.1074 14.4305C19.796 14.4305 20.3572 14.9888 20.3572 15.6773C20.3572 16.3658 19.7989 16.9242 19.1074 16.9242C18.4189 16.9242 17.8577 16.3658 17.8577 15.6773C17.8577 14.9888 18.4189 14.4305 19.1074 14.4305ZM12.8616 16.9242C12.1731 16.9242 11.6118 16.3658 11.6118 15.6773C11.6118 14.9888 12.1702 14.4305 12.8616 14.4305C13.553 14.4305 14.1113 14.9888 14.1113 15.6773C14.1113 16.3658 13.5501 16.9242 12.8616 16.9242ZM29.8374 28.9472C31.4834 27.7553 32.5336 25.9964 32.5336 24.0379C32.5336 20.4507 29.0389 17.5433 24.7255 17.5433C20.4151 17.5433 16.9175 20.4507 16.9175 24.0379C16.9175 27.6252 20.4122 30.5326 24.7255 30.5326C25.6166 30.5326 26.4787 30.4053 27.2742 30.1767C27.3494 30.1536 27.4246 30.142 27.5028 30.142C27.6532 30.142 27.7892 30.1883 27.9164 30.2606L29.6262 31.2442C29.6754 31.2732 29.7216 31.2934 29.7766 31.2934C29.8109 31.2937 29.8449 31.2872 29.8767 31.2743C29.9085 31.2614 29.9374 31.2423 29.9618 31.2182C29.9859 31.1938 30.0049 31.1649 30.0178 31.1331C30.0307 31.1013 30.0372 31.0673 30.037 31.033C30.037 30.9694 30.0109 30.9057 29.9965 30.8421C29.9878 30.8074 29.7766 30.0234 29.6435 29.5316C29.6291 29.4766 29.6175 29.4217 29.6175 29.3667C29.6204 29.196 29.7072 29.0427 29.8374 28.9472ZM22.1277 23.0022C21.552 23.0022 21.0862 22.5365 21.0862 21.9637C21.0862 21.3909 21.552 20.9251 22.1277 20.9251C22.7034 20.9251 23.1691 21.3909 23.1691 21.9637C23.1691 22.5365 22.7005 23.0022 22.1277 23.0022ZM27.3321 23.0022C26.7564 23.0022 26.2906 22.5365 26.2906 21.9637C26.2906 21.3909 26.7564 20.9251 27.3321 20.9251C27.9078 20.9251 28.3735 21.3909 28.3735 21.9637C28.3722 22.2392 28.2619 22.503 28.0668 22.6975C27.8717 22.8921 27.6076 23.0016 27.3321 23.0022Z" fill="white"/>
</svg>
