<svg xmlns="http://www.w3.org/2000/svg" viewBox="0 0 1000 1000"><defs><style>.cls-1{fill:#d4d4d4;}</style></defs><g id="Layer_2" data-name="Layer 2"><g id="Layer_1-2" data-name="Layer 1"><rect width="1000" height="1000"/><path class="cls-1" d="M165.88,809.34c-1.08.62,1.86,3,2.21,3.62C168.93,810.93,165.16,808.68,165.88,809.34Z"/><polygon class="cls-1" points="173.84 789.26 174.69 790.59 174.06 785.88 173.84 789.26"/><path class="cls-1" d="M186.79,776.12c-5.83-3.21-3.86,5.56-7.79,6.32l-1.44-.65,2.65,4.68a46.94,46.94,0,0,0,2.92-6.16C184.09,778.24,185.17,776.52,186.79,776.12Z"/><path class="cls-1" d="M203.65,778.6c-2.23-1.28-.07-3-2.17,1.13a5.68,5.68,0,0,1,.75.14A6.64,6.64,0,0,1,203.65,778.6Z"/><path class="cls-1" d="M202.23,779.87c-1.22,1.54,2.4.52,0,0Z"/><path class="cls-1" d="M207.45,772.35l-.16,3.4c1.44.62,3.27-.81,3.47.54C211.7,773.53,210.25,772.93,207.45,772.35Z"/><path class="cls-1" d="M205.72,767.37l-.23,1.61C206.1,769.24,206.5,769.13,205.72,767.37Z"/><path class="cls-1" d="M205,772.39l.51-3.41c-1-.44-2.56-1.84-.38,1.43C203.89,768.94,204.84,770.6,205,772.39Z"/><path class="cls-1" d="M203.17,772.88c-2,.08-3.94.82-3.77-2.57C196.65,774.46,200.41,777.06,203.17,772.88Z"/><path class="cls-1" d="M182.66,770.83l-2.68.07.41,2.7C180.19,772.26,184.19,772.14,182.66,770.83Z"/><path class="cls-1" d="M220.81,762.86c-.89-1-3.26-1.83-4.67-2.88l-.14,2.46C217.35,762.36,219.24,761.58,220.81,762.86Z"/><path class="cls-1" d="M216.14,760l.2-3.68C214.42,758,214.92,759.07,216.14,760Z"/><polygon class="cls-1" points="200.84 762.16 201.21 768.9 201.41 761.46 200.84 762.16"/><polygon class="cls-1" points="228.31 754.97 229.55 758.3 227.97 752.95 228.31 754.97"/><path class="cls-1" d="M232.79,749.29c1.14,2.64,4.39,1.76,4.74,3.78,1-1.78.4-4.53-.1-7C237.2,748,235.86,749.09,232.79,749.29Z"/><path class="cls-1" d="M236.92,742.2a16.93,16.93,0,0,0,.51,3.86A9,9,0,0,0,236.92,742.2Z"/><path class="cls-1" d="M220.11,753.2c.76.4,2.64,1.55,4.39,1l-3.59-1.77C220.66,752.65,220.39,752.93,220.11,753.2Z"/><path class="cls-1" d="M220.79,752.36l.12.06c.88-.84,1.52-1.4,1.79-1.63Z"/><path class="cls-1" d="M219.91,753.4l.2-.2C219.75,753,219.62,753,219.91,753.4Z"/><path class="cls-1" d="M208.42,759.1c-.44-2.7.2-6.8-4.46-6.58C205.08,755.19,207.75,755.05,208.42,759.1Z"/><path class="cls-1" d="M215.43,751.16l-2.68,1.62c.78.64,2.24,1.25,2.47,2.58Z"/><polygon class="cls-1" points="215.53 749.25 215.43 751.16 216.42 750.56 215.53 749.25"/><path class="cls-1" d="M230.81,743.65c-.38-2.1.46-3.25,1.33-4.63a12.69,12.69,0,0,0-4.31,3.1C228.57,743.11,229.68,745.12,230.81,743.65Z"/><path class="cls-1" d="M225.71,747.67c0-.13,0-.24,0-.36C225.37,747.22,225.2,747.26,225.71,747.67Z"/><path class="cls-1" d="M242.67,727.24,242,727l.45.49Z"/><path class="cls-1" d="M227.1,741.86c-1.4.47-1.23,1.66-.86,3a9.6,9.6,0,0,1,1.59-2.74C227.49,741.67,227.24,741.42,227.1,741.86Z"/><path class="cls-1" d="M238.52,737.7a14.15,14.15,0,0,0-3.07.27C236.79,738.29,239.1,738.55,238.52,737.7Z"/><path class="cls-1" d="M226.82,747.7a1.13,1.13,0,0,1,0,.26C227.71,748.2,227.38,748,226.82,747.7Z"/><path class="cls-1" d="M226.82,747.7a9.58,9.58,0,0,0-.58-2.84,7.09,7.09,0,0,0-.5,2.45A6.19,6.19,0,0,1,226.82,747.7Z"/><path class="cls-1" d="M227.32,707.35c2.53,2.52,2.76,7.22-2,6.86.1,3.9,10.11,10.3,16.7,12.75-1.11-1.09-2.18-2.05-1.79-5.65-2.15-.51-7.78,1.88-8.54-2.12,1.23-4.13,3.08-1.55,5.76-1.73-4.4-1.73-1.54-8-7-11.65l-.55,4.06C229,709.25,228.65,707.26,227.32,707.35Z"/><path class="cls-1" d="M237.94,731l-.48,1.21c1.39-.63,3.11-.43,6.43.05.05-2.68-.66-3.87-1.46-4.76l-4.37,4.16Z"/><path class="cls-1" d="M233.82,736.27c-2.26-3.31-1.54-6.59-5.86-8-2.18,2.85.75,4,.58,6.75,3.12-5,.5,2.68,4.91,1a8.6,8.6,0,0,1-1.31,3,15,15,0,0,1,3.31-1l-.27-.07v0l0,0c-.53-.14-.8-.27-.41-.3,0,0,0-.11,0-.14a8.44,8.44,0,0,1-.91-1.17c1.71-.72.92.47.91,1.17.14.14.24.3.39.44h.05l2.28-5.74C236.24,732.71,235.3,733.93,233.82,736.27Z"/><path class="cls-1" d="M199.92,744.59a2,2,0,0,1,.79.48C200.61,744.47,200.47,744.15,199.92,744.59Z"/><path class="cls-1" d="M203.24,744.44c.11.68,1,2-.2,2.72-1.65.08-1.35-1.27-2.33-2.09.2,1.3.09,4,3.22,3.39l-.11-.66c2.55-.8,8.13.28,8.25.94A38.89,38.89,0,0,0,203.24,744.44Z"/><path class="cls-1" d="M217.93,739.67c.62-1.61,1.24-3.21,1.83-4.83l-4.13-.44,1.58,1.26C214.78,737.14,217,738.37,217.93,739.67Z"/><polygon class="cls-1" points="244.48 728.1 247.12 731.29 244.64 725.38 244.48 728.1"/><polygon class="cls-1" points="248.29 723.09 250.81 725.61 250.3 722.95 248.29 723.09"/><path class="cls-1" d="M438.35,424l.17-1.73A4.1,4.1,0,0,0,438.35,424Z"/><path class="cls-1" d="M431.46,431.6l1.16,1.34C432.2,432,431.79,431.33,431.46,431.6Z"/><path class="cls-1" d="M346.23,604.94c3.87.49,9.32,1.95,6-.37l-3.43-2A2.86,2.86,0,0,1,346.23,604.94Z"/><path class="cls-1" d="M393.76,509.06l-1.3-.29,2,3.43C394.23,511.24,394,510.18,393.76,509.06Z"/><path class="cls-1" d="M382.16,497.71l3.66-.5A9.72,9.72,0,0,0,382.16,497.71Z"/><path class="cls-1" d="M472.52,379.28l-1.81-3.9C469,377.3,471.21,377.81,472.52,379.28Z"/><path class="cls-1" d="M288.88,673.38a8.82,8.82,0,0,0,4.64-1.9C290.43,671.7,286.75,670.87,288.88,673.38Z"/><path class="cls-1" d="M467.07,454.14a2.87,2.87,0,0,0-1-2.45A2.36,2.36,0,0,0,467.07,454.14Z"/><path class="cls-1" d="M296.78,667.52a12.94,12.94,0,0,0-1.3.14,6.72,6.72,0,0,1-2,3.82C295.81,671.33,297.76,670.6,296.78,667.52Z"/><path class="cls-1" d="M619.16,238a5.07,5.07,0,0,1,.66,0C619.49,237.6,619.32,237.71,619.16,238Z"/><path class="cls-1" d="M689.3,228.92a8.1,8.1,0,0,1-1.63,1.77C688.17,230.62,688.7,230.14,689.3,228.92Z"/><path class="cls-1" d="M266.11,705.12c-.68,1.18.19.44,0,0Z"/><path class="cls-1" d="M250.19,699.92a3.55,3.55,0,0,0-1.09-1.64A4.72,4.72,0,0,1,250.19,699.92Z"/><path class="cls-1" d="M286.46,641.89l.09-.07C285.71,641.63,285.87,641.67,286.46,641.89Z"/><path class="cls-1" d="M263.45,705.48a6.3,6.3,0,0,0,2-.53A6.29,6.29,0,0,0,263.45,705.48Z"/><path class="cls-1" d="M265,706.48c-.43.23-.74.44-1,.63C264.36,707.66,264.77,707.82,265,706.48Z"/><path class="cls-1" d="M267.16,703.58a4.54,4.54,0,0,1-1.71,1.37c.37,0,.61,0,.66.17C266.32,704.79,266.62,704.32,267.16,703.58Z"/><path class="cls-1" d="M547.53,320.51a2.8,2.8,0,0,1,.45.06C547.78,318.48,547.55,319.07,547.53,320.51Z"/><path class="cls-1" d="M336.17,552.8c0,.07.05.16.05.23l.23-.06Z"/><path class="cls-1" d="M336.88,547.29c2.52,4.61,1.33,5.13-.43,5.68l9.75,5.84Z"/><path class="cls-1" d="M453.68,404.75l-4.85.19c-1.64-6.86,1.81-7.76-4-8.65,8.84,8.46-7.77,10.63,1.14,19.06l-3.39,0c.51-.4,0-.95.53-1.34-7.22-.6,4.57,8.23-.35,11.26-2,.85-4.19.71-4.43-1.24l-.52,5.23c-1,.79-2.41-.83-1.42-1.62l-3.55,5.6-.24-.27a40.55,40.55,0,0,1,2,7.08c-2.42.12-.44-1.47-1.87-2.14l-.12,4.67c-3.37-.94-3.75-5.22-1.76-6.82-11.5-5.36.35,4.27-9.78,5.23l1-3.62c-6.7-2.81-6.52.87-12.32,1,2.32.75,13.31,1.11,13.09,6.1-1.41.25-2.69,1.08-2.18,4.29-3.34-2.79-3.86-.52-5.34,1.62l-4.29-3.85c-.54,3.22,1.84,4.94,2.76,7.87-2.45,2-6.28-.35-9.64-2.2-3.93,3.24,7.72,2,4.73,7.18-4.38,1.77-4.41,5.54-4.94,11.56-3.39,1-2.39-2.64-4.32-2.89l1.89,4.91c-.49.42-1.44-.64-1.92-1.17,0,2.81,4.31,3.81,3.34,7.43,4.3,4.75-11.61-.51-8.75,7.32-1.93-.24-2.41-2.63-4.33-3.8,0,7.47-.49,6,1.42,13.73l-5.49.73c5.23.44,6.78,6.62,7.94,11.85a54,54,0,0,0,5.32,1.05l-1,6c-1.13-.1-2.33-1.77-3.64-4,.14.58.28,1.14.45,1.63-2.84.12-4.8-2.74-6.43-5.83,1.29.22,2.63.49,4,.77-1.88-3.22-4.1-6.62-6.89-8.55a3.63,3.63,0,0,1,.11,2.33,4.54,4.54,0,0,0-1.58-1.81c-.59-.24,0,1,.64,2.59L379,500.21l1.79,1.84-7.51,2.84c1.86,7.92,6.54,17.28,3.65,25.06-2.43-4.48-5.71-5.17-10-8.76,5.93,2,1.89-6.32,5.39-8.74-1.83,1.26-3.6-.78-4-1.78l-.42,9c-3.44-3-3.62-1-6.29-.66,7.91,4.56,1.25,8,1.54,12-2.47-1.76-4.43-4.26-1.58-6.61-7.79-1.16,5,10.66-2,10.08.5-.73,1.16-.81.18-2,.8,3.29-4,5.87-5.33,3.3l.5-.73c-4.51,3.89-11.23,13.83-5.82,19.32-.81-.58-6.7-6.39-7.68-7.64L355,571.05c-4.54-4.84-18.95-11.91-18.8-18-1.6.49-3.54,1.15-3.57,4.9,1.32-.16,8.89,4.11,8.55,5.5-7.94-1.81-4.61-.53-12.22-1,2-.23,9,7.47,7.36,9-1-1.24-8-6.24-8.36-7.55l4.36,10.71c-.54-2.23-6.52-5.58-9.54-6.4,1.91.79-3.17,3.65-3.33,5.44l3.32-.37c-5.16,4,7.16,13.8,2.8,18.35-1.14-1.91-8.83-9.54-11.82-7.86,3.11,4.38,15.32,20.69,14.92,27.53l-3-1-.06,5.44c-4.39-7-12.46-23.09-14.88-30.25-3.31.36-3.14-1.69-5.15,1.23-2.94-.78-2.06-4.15-1.53-5.06l-6.57,5.27c4.93,3.52.75,8.71,4.86,11.64l.76-10.9c4.92,3.52,10.09,14.83,5.58,18.7-2.81-.36-7.66-7.65-9.31-8.83,1.14,1.9-.39,6.82-1.88,6.3l-1-4c-3.81,1.09,2.88,9.17-4.06,8.55-1.16.8-8.58-1.81-6,.63,6.74,2.67,23.57,15.82,26.66,20.24-.67.07-9.61,1.32-13.23.36-5.59-1.72-7.87-10.76-12.67-12.24a9.53,9.53,0,0,1,2.22,4.17c-2,.2-3.59-3.7-5-.85,4.42,4.28-4.36,4.51,3.09,4.41-.55,3.44-3,1.67-5,4.58,3.77,1.65,8.4,11,7.82,14.46a11.56,11.56,0,0,0-4-2.24c-4.37,4.41-8.63,5.18-12.34,9.58-1.48-.55-4.63.44-5.91-2.16.31,1.33,1.42,3.25.4,4.71-6.26-.76,1.9-3.57-4.67-5.65,2.59,2.45.86,6.7.94,10,4.74,3,4.54-3.81,4.45-7.18,5.83,4.84,9.16,13.36,7.94,20.23-1.65,4.88-5.1-1.56-4.81-.24-6.83,6,5.17,14.43-3.86,16.62-5.6-.86-7.41-6.13-10.5-7.88,1.12-4.17,6.21-2.59,7.77-4.74l-3.85,1c-.43-2,.32-4.76,2.3-5-4.93-.92-10.41,11.1-18,13.72.42,2,.31,4.69,2.44,5.2l.92-2.1c4.29,1,1.39,6.64,4.6,5.73.15,4,1.24,9.34-3.16,11l-4.68-3c1.28,1,4.26.09,3.76-1.89.71,2.92-9.82-.08-5.61,6.1l4.8.3c.15,4.06,2.15,10.7-1.58,12.36,5.2,2.31.09-1.06,6.61,1.14-7.47-3.49,6.46-7-2.22-9.64,7.35,2.8,5.42-1.48,12.51,0-1.45-1.11-3.46-1.33-.74-3.1a9,9,0,0,1-.77-1.56,1.27,1.27,0,0,1,.24-.07,2.44,2.44,0,0,0-.27,0c-.12-.28-.16-.33-.1,0a6.34,6.34,0,0,1-3.13-.61c-2.16-3.89,1.17-7.54.62-10.21,1.86-.83,1.08,1.94,3.21,2.45l-.84-4c3.23,2.44,8.27.62,7.27,5.48l2.66-2.87c3.21-.29,5.95-2.13,5.91-4.72,1.86-.85-.41-6.45,1-3.18l2-6.3.8.61c4.33-4.29,2.87-13.81,12.88-14.46.51-2.22.89-4.63,3.94-6.52l3.12,1.72c.73-2.78,7.71-3.81,5.61-7,9.08,3.81,9.61-8.49,13.81-11l-3.43-3c2.2-2.28,3.11-5.44,4.17-9.63l-3.28-2.36c-.43-4.69,7.7-4.91,10.73-9.31,1,1.25-.2,2.05-1.52,2.2,11.09.8,3.3-14.61,12.09-14.91-.24-2.05.81-2.54,2.23-2.69a.56.56,0,0,0-.06.41,1.83,1.83,0,0,0,.41-.42c.94-.06,2-.06,2.93-.21a8.22,8.22,0,0,0-2.74-.05,10.44,10.44,0,0,0,1.54-4.46l3.82,2.18c0-.14.11-.22.14-.37,2.26-.26-.78-2.3-3.86-3.68a9.83,9.83,0,0,0-.67-3.34c6.27,3.37.88-4.84,7.81-1.55-2.14-3.15,3.06-8.17-2.35-13.66.81.59,1.49.51,1,1.24,1.83-.88,3.66-1.76,3-4.4l4.78,2.85-3.25-7.77c4.14.21,6.29.66,8.08,5.19-1.43-8.63,1.05-5.22-.87-13.14l2.62,2.42c1-1.46-.93-6.67,2-5.65,7.76,1.16,13.05-14.69,24.35-18.62-9.39-5.07,6.62-.71.56-6.15,2.3,1.1,4.28.89,4.91,3.52,1.38-5.56,8-3.57,4.91-10.66,2.3,1.11,2.11,3.15,3.59,3.68-.15-.67-.63-2.64.86-2.12s1.13,1.9,1.45,3.22c3-4.36-2.56-9.61-7.88-14.44,4.33.07,4.81-1.27,2.39-5.75,2.41.76,5.29,1.11,3.87,4.19,1.44-1.22,9.81-6.57,5.48-10.37,1.5.48,2-1.74,1.77-2.54,2.91-3,3.55-2.92,5.73-6.41l-1.45.27c-4.32-5.66,1-3.59,2.43-6.66l.48.52c8.67-2.6.24-4,9.38-6.1l-3.58-2.46c-6.69-6.48,8.41-1.57,8.47-7.13l-2.89-.39c-.91-3.85,13.92,3.09,16.32,2,.95.13.46,1.46.46,2.39,8.17-1.18-3.81-4.25-1.84-8.62,2.87,1.32,5.22,5.84,7.65,3.85,2.87.43-1.78-13.29,5.43-12.69-2.39-.83-4.78-1.65-4.72-4.41,1.51-3,12.52-.91,8.84-8a3.52,3.52,0,0,1,1.78.77c.19-3.15,2.92-8.24.88-12,6.39,4,7.53-.13,8.46-4.1s1.53-7.86,6.66-3.28L486.6,426l.91,1.09c3.93-3.09,2.67-6.55,1.36-10.05,1.46-.22,1.86,1.26,2.33,1.81,6.88-3.49,6.91-4.39,5.88-13.49l3.73,2.54c-.8-3,12.19-2.92,13.12-11.63a3.76,3.76,0,0,1,1,1.94c.75-4.72,6.29-6.05,10.34-7.88s6.68-4.12,1.77-10.76l.71-6.55c-5.61,4-4.42-5.59-8.3-5.42,1.16-2.6,8.33-1.63,6.67,1.32l-1-.19c5.3,6.71,8-4,12,.09,4.43-5,9.82-8.93,15.16-12.76s10.73-7.44,15.24-11.73l-5.68-3.63,3.34-2.82c1.89.26,4.72,2.55,2.34,4.56,3.79,1.48,1.45-5.91.51-7,6.2-2.4,3.74,7.11,5.18,5.9l1.44-2.13-1-.14c-.44-3.35-2.32-5.5.57-7.9,2.61-.72,3.72,2,4.55,1.57.33.34.71.27,1.15-.87l4.29-3.44-5.2-2.17c-.07-3.54,3.86-3.43-2.07-5.85,9,3.84,17-11.94,20.57-11.52-.16-5.09,2.34-7.36,5.67-9.9-1.49-.08-6-3.88-2.87-5.85,7.35,9.67,8.37-.76,16.45,3.6-5.84-2.43,6.49-8-2.07-11.19,2.87-1.33,3.22,3.17,6.82,3.7,2-8.31,13.58-8.44,19-15.52-1-1.27-3.68-2.06-3.87-5.08l8.75,2.73c.77-1.73-4.93-7.85,1.12-5.89-1.23-.69-3.07-1.73-2.54-2.89a31.35,31.35,0,0,0,11.41-6.87c3.28-2.92,6.23-6.26,9.31-9.46,6.14-6.43,13-12.11,24.36-12.32-3.79-.79-2.79-2-1.49-3.32-1.37.21-2.52-3-4.09-4.47l9.48-.2c-2.83-5.41,5.75-5.38,2.67-10.23l-1.12,2.29c-1.94-7.16-12.93-8.63-18.15-15.51,2.27,8.1-14.43-2.67-11.69,9.43-2.11-.5-1-2.81-2.8-3.89,1.3,3.76.47,5.49-3.09,6.37l-.32-.93c-6.39,6.66-11.72,6.52-21.1,11.53l3.4,2.69c-2,1-3.28.34-4.77.23,2.37,6.52,4.93-3.84,7.9,3-8-4.59-11.77,10.27-19.82,4.25-2.59,2.25,4,3,1.46,5.25l-2.46-1.38,1.65,3.13c-2,1.07-5.12-.65-6.7-2.27.59-.17.73-1.5,1-2-4.29-.4-5.37,6.31-6.79,6.23l3.53-1c-2.61,4.08-6.6,7.38-10.32,10.94s-7.1,7.41-8.55,12.46l1.87,1c-2.47,7.41-5.57,2.11-9.85,8.57l-.13-.54a6.2,6.2,0,0,1-2.13,5.87c-.25-3-5.76-.84-5.74-4.46-2.65,8-.52,4.82,1.09,13.61L579,289c.89,3.35,1.9,4.6-.2,7.83.22-4.21-5.25-2-5.4-7.12-10.77.27-3.29,13.45-13.35,8.34,3.86,9.13,8.49-1.1,8.42,1.73,3.32,1,2.67,7,.26,8.09-1.94,1.61-11.33-5.44-15.73-.83.48-.42,0-.95.49-1.36-3.35,0-1.07,5.54-5.84,4.88,2.77,5.11-2.92,2.45,1.79,7.82l3-5.27c-1,3.64,2.68,11.72-4,12.71a12.48,12.48,0,0,1-.88-5.32c-2.61-.36-1.18,3.15-3.87,2.8-4.72-5.36,3.88-6.12,2.56-12.47-3.36-.93-1.09,8.41-5.29,1.68,5.14,8.75-5.31,3.58-3,11.92l-2.84-3.2c0,.95.44,3.37-.52,4.19l-2.34-5.51c.89,5.79-7.7,1.89-8.2,6.11,4.81-5.13,4.78,2.47,9.07,2.53-1.93,10.18-11.45-4.26-16.75,4.13.48-1.36,5.27-1.74,5.26,1.11a12,12,0,0,1-7.2.56c-3.84,5.23,3.85,2.35,3.83,6.13-5.26-2-.65,3.75-1.39,6.92l-3.15-3c-7.06,3.36,5.2,7.66-1.76,10.08l-2.44-6.17-1.24,3.56L505.15,348c.07,5.23-1.42,5.4-4.94,7.12,2.8,1.47,5.4,5.75,3.29,8.2-3.38-.16-2.16-3.73-4.84,0-1.27-2.61-3-5.78,1.3-4.5-.89-1.12-1.28-2.61-2.16-3.72-3.78-.3-4.58,3.9-5.69,5.15a2.86,2.86,0,0,1,2-.63l-.15,9c-1.91-.35-2.3-1.85-2.68-3.33-.58,1.31.25,3.35-.84,5.05-2.23-2.78-5-5.16-4.27-8.35l-1.46,7.32c-1.41-.73-5.31-.47-5.7-2-3.92,1.19-.81,11-6,12.58a3.23,3.23,0,0,1,.2,2.51c-3.53,2.71-9.35,2.7-9.24,9.8l-6.68-2c-1.66,4,8.6,2.37,5.85,9-1.69,4.92-5.22-2.26-7.65-2.17.79,3.91,2.91,11.32-3.87,11.2C451.67,406.32,453.13,406.08,453.68,404.75ZM423,444.45c-.07-1.32-1-4.62,1.44-3.5C427.53,445,425.17,444.12,423,444.45Zm-40.35,65c-.66-1.45.59-1.86,2.66-1.79A2.76,2.76,0,0,1,382.66,509.44ZM272.88,691.75a1.38,1.38,0,0,0-.1-.22C275.47,691,274.46,691.13,272.88,691.75Zm-4.34,2.2a1.88,1.88,0,0,0,1.24,1.36c-.63-.95,0-1.77.93-2.45C269.64,692.37,268.67,692.3,268.54,694ZM578.1,331.32l-1.41-.21C577.19,328.86,577.6,330.05,578.1,331.32Z"/><path class="cls-1" d="M383.49,499.05a8.44,8.44,0,0,1,2.08,1.17A1.86,1.86,0,0,0,383.49,499.05Z"/><path class="cls-1" d="M472.85,380c.06,0,.09-.06.14-.08a3.41,3.41,0,0,0-.47-.64Z"/><path class="cls-1" d="M284.48,617.31a4.81,4.81,0,0,1,2.85.05A2,2,0,0,0,284.48,617.31Z"/><path class="cls-1" d="M258.57,716.83l1-2.93c-.75,1.2-1.79,1-2.78,1C257.64,715.55,259.11,716.1,258.57,716.83Z"/><path class="cls-1" d="M221.93,717.79c.12.67-.54.7-.42,1.37l1.59,1.26C224.18,719,223.79,717,221.93,717.79Z"/><path class="cls-1" d="M246,709.37c-2.91-2.23-3.15-.06-3.95,1.91a.75.75,0,0,1,.23-.27C245.68,714.82,245.82,712.09,246,709.37Z"/><path class="cls-1" d="M241.79,711.71a3.57,3.57,0,0,1-1.15,1.47C242,714.7,241.46,712.89,241.79,711.71Z"/><path class="cls-1" d="M266.7,699.87c-1.34.11,3.15,3.49,1.67,2.93C271.2,706.63,268.27,694.31,266.7,699.87Z"/><polygon class="cls-1" points="235.82 702.69 239.68 705.11 237.68 701.87 235.82 702.69"/><path class="cls-1" d="M248.66,692.91l-3,1.6a1.64,1.64,0,0,1,.6,1.65C247.63,694.78,249.72,693.72,248.66,692.91Z"/><path class="cls-1" d="M246.22,696.16a2.79,2.79,0,0,0-1.12,2.44A5.78,5.78,0,0,0,246.22,696.16Z"/><polygon class="cls-1" points="237.65 698.5 238.98 698.4 240.7 696.91 237.65 698.5"/><path class="cls-1" d="M271.59,667.26l1.27-3.49c-1-1.26-2.3-1.14-2.67.24C270.48,665.34,270.1,666.72,271.59,667.26Z"/><path class="cls-1" d="M255.34,667.36c1.32-.11,2.14.49,3.61,1l-4.2-3.68Z"/><path class="cls-1" d="M260.89,658.78c-1-1.26-.16-6.71-2.73-3.12C259.11,656.91,257.85,660.4,260.89,658.78Z"/><polygon class="cls-1" points="299.75 622.85 299.25 623.58 306.43 629.28 299.75 622.85"/><path class="cls-1" d="M311.85,573.13c-4.3,1.83,3.79,4.32-.69,5.49,1.08,2.12,3.66-1,4.49,1C315.44,576.23,317.26,576,311.85,573.13Z"/><path class="cls-1" d="M315.65,579.61a9.76,9.76,0,0,0,.29,1.86A4.46,4.46,0,0,0,315.65,579.61Z"/><polygon class="cls-1" points="699.85 226.47 703.08 226.24 699.81 224.97 699.85 226.47"/><path class="cls-1" d="M699.34,218l4.22,4.08L701.38,217C701.09,217.59,700.53,218.72,699.34,218Z"/><path class="cls-1" d="M409.22,442.54l.95,1.06c1.42.67,1.91.26,2.91-.55Z"/><polygon class="cls-1" points="436.25 417.69 435.74 418.09 440.5 420.67 436.25 417.69"/><path class="cls-1" d="M451.44,390.21c-1,.78-1.1,2.67-2.11,3.46C450.43,391,456.57,394.34,451.44,390.21Z"/><path class="cls-1" d="M891.41,836.71c.94.64,1.66-2.23,2-2.66C891.45,834,891.18,837.44,891.41,836.71Z"/><polygon class="cls-1" points="872.07 836.37 872.79 835.36 869.27 837.15 872.07 836.37"/><path class="cls-1" d="M856.21,830.45c-.21,5.24,6,1.34,8.26,4l.07,1.25,2.69-3.31C863.55,831.76,858.16,832.64,856.21,830.45Z"/><path class="cls-1" d="M851.33,817.18c-.12,2-2.41.9,1.79,1.3a4.17,4.17,0,0,1-.2-.6A7.53,7.53,0,0,1,851.33,817.18Z"/><path class="cls-1" d="M852.92,817.88c1.74.49-.56-1.93,0,0Z"/><path class="cls-1" d="M844.72,816.19l2.81-.88c-.09-1.24-2-2.17-1-2.71C843.92,812.72,844,814,844.72,816.19Z"/><path class="cls-1" d="M841.4,818.91l1.4-.3C842.75,818.09,842.5,817.82,841.4,818.91Z"/><path class="cls-1" d="M845.77,818l-3,.63c.06.87-.44,2.41,1.31-.14C843.43,819.79,844.38,818.61,845.77,818Z"/><path class="cls-1" d="M846.91,819.17c.9,1.46,2.28,2.66-.53,3.52C850.85,823.56,851.41,820,846.91,819.17Z"/><path class="cls-1" d="M853.64,835l1.15,2,2-1.06C855.79,836.45,854.07,833.51,853.64,835Z"/><path class="cls-1" d="M831.57,809c-.48,1-.14,2.95-.41,4.3l2-.6C832.58,811.7,831.18,810.51,831.57,809Z"/><path class="cls-1" d="M831.16,813.28l-3,.88C830.25,815.12,830.93,814.43,831.16,813.28Z"/><polygon class="cls-1" points="839.2 824.02 844.5 821.77 838.4 823.81 839.2 824.02"/><polygon class="cls-1" points="822.09 805.74 824.26 803.85 820.59 806.59 822.09 805.74"/><path class="cls-1" d="M815.62,804.14c1.67-1.61-.4-3.75,1.09-4.59-1.84-.2-3.83,1-5.63,2.08C812.75,801.24,814.19,801.93,815.62,804.14Z"/><path class="cls-1" d="M808.18,803.12a14.32,14.32,0,0,0,2.9-1.49A7.29,7.29,0,0,0,808.18,803.12Z"/><path class="cls-1" d="M824.06,812.27c0-.67.16-2.39-1-3.51l.05,3.16Z"/><path class="cls-1" d="M823.1,812v-.1c-1-.41-1.76-.7-2.06-.84Z"/><path class="cls-1" d="M824.3,812.36l-.24-.09C824.06,812.58,824.09,812.69,824.3,812.36Z"/><path class="cls-1" d="M833.62,819.26c-2,1.09-5.56,1.77-3.46,5.18C831.84,822.85,830.64,820.91,833.62,819.26Z"/><path class="cls-1" d="M824.35,816.3l2.4,1.53c.2-.77.09-2,1.07-2.57Z"/><polygon class="cls-1" points="822.76 816.79 824.35 816.3 823.45 815.75 822.76 816.79"/><path class="cls-1" d="M811.89,807.23c-1.54.88-2.82.59-4.29.34a13.47,13.47,0,0,0,4.29,2.3C812.38,809,813.54,807.64,811.89,807.23Z"/><path class="cls-1" d="M817.26,809.81c-.1,0-.21,0-.31.08C817,810.18,817.13,810.3,817.26,809.81Z"/><path class="cls-1" d="M793.66,803.34l.07.59.2-.48Z"/><path class="cls-1" d="M812,810.49c1,.91,1.86.43,2.79-.24a9.57,9.57,0,0,1-2.87-.38C811.67,810.25,811.56,810.51,812,810.49Z"/><path class="cls-1" d="M803.88,803.23a14.09,14.09,0,0,0,1.49,2.19C805.07,804.33,804.33,802.54,803.88,803.23Z"/><path class="cls-1" d="M816.82,809a.86.86,0,0,1,.21-.07C816.85,808.18,816.8,808.49,816.82,809Z"/><path class="cls-1" d="M816.82,809a7.76,7.76,0,0,0-2.06,1.27,6.93,6.93,0,0,0,2.19-.36A3.63,3.63,0,0,1,816.82,809Z"/><path class="cls-1" d="M784,820.52c1-2.6,4.67-4.18,6.38-.58,3.11-1.25,4.1-10.46,3.31-16-.42,1.13-.74,2.2-3.82,3,.49,1.72,4.79,5.11,1.87,6.86-3.85.35-2.54-1.77-3.81-3.67.45,3.73-5.8,3.53-6.46,8.63l3.51-.83C784.85,818.69,783.41,819.58,784,820.52Z"/><path class="cls-1" d="M798.66,805.68h1.17c-1.09-.83-1.65-2.15-2.65-4.71-2.2.77-2.86,1.64-3.25,2.49l5.21,1.94Z"/><path class="cls-1" d="M804.68,807.12c-1.72,2.6-4.68,3.07-4,6.66,3.19.77,2.93-1.72,5.2-2.38-5.29-.89,1.95-1.14-1.21-3.94a9,9,0,0,1,3,.11,15.1,15.1,0,0,1-2.23-2.15l.07.21h0v0c.1.44.11.68-.08.4,0,0-.09,0-.12,0a6,6,0,0,1-.56,1c-1.29-1.06,0-.82.56-1,.06-.14.14-.26.2-.42v0c-1.86,0-3.74,0-5.61,0C800.79,806.4,802.19,806.68,804.68,807.12Z"/><path class="cls-1" d="M825.42,829.68a1.28,1.28,0,0,1,.07-.72C825.05,829.2,824.84,829.4,825.42,829.68Z"/><path class="cls-1" d="M823.94,827.26c.5-.28,1.18-1.32,2.27-.62.74,1.2-.46,1.36-.72,2.32,1-.51,3.18-1.2,1.4-3.35l-.48.27c-1.69-1.67-3.11-6.13-2.63-6.4A26.85,26.85,0,0,0,823.94,827.26Z"/><path class="cls-1" d="M814,817.87l-4.66.07,1.35,3.17.37-1.53C813.27,820.93,813.34,818.92,814,817.87Z"/><polygon class="cls-1" points="793.6 801.76 795.08 798.87 791.33 802.46 793.6 801.76"/><polygon class="cls-1" points="787.94 800.48 788.92 797.89 786.98 799.06 787.94 800.48"/><path class="cls-1" d="M465.5,789.1l-1.27.78A3.92,3.92,0,0,0,465.5,789.1Z"/><path class="cls-1" d="M474.69,789.31l.24-1.36C474.49,788.7,474.32,789.25,474.69,789.31Z"/><path class="cls-1" d="M649.21,769.61c-1.47-2.87-3-7.18-3.21-4.07l.1,3.1A3,3,0,0,1,649.21,769.61Z"/><path class="cls-1" d="M551.17,776.29c.16.31.32.64.48,1l1.48-2.78C552.54,775,551.87,775.65,551.17,776.29Z"/><path class="cls-1" d="M548.93,788.72l-2.31-2.11A8.16,8.16,0,0,0,548.93,788.72Z"/><path class="cls-1" d="M415.43,793.47l-1.33,3.14C416.41,796.51,415.32,795,415.43,793.47Z"/><path class="cls-1" d="M730.33,786.48a8.92,8.92,0,0,0-3.59-2.7C728.28,785.92,729.24,788.83,730.33,786.48Z"/><path class="cls-1" d="M469.18,756.88a2.15,2.15,0,0,0-1.12,1.84C468.89,758.21,469.35,757.63,469.18,756.88Z"/><path class="cls-1" d="M722.1,782.72a9.47,9.47,0,0,0,.69.89,7.22,7.22,0,0,1,4,.17C725.61,782.19,724.14,781,722.1,782.72Z"/><path class="cls-1" d="M235,814.26a3.87,3.87,0,0,1-.48-.27C234.56,814.4,234.74,814.38,235,814.26Z"/><path class="cls-1" d="M175.58,797.07a8.86,8.86,0,0,1,2.1-.81C177.24,796.16,176.59,796.35,175.58,797.07Z"/><path class="cls-1" d="M765.84,792.93c1.24.13.28-.27,0,0Z"/><path class="cls-1" d="M768.43,806.09a2.43,2.43,0,0,0-.86,1.29A3.18,3.18,0,0,1,768.43,806.09Z"/><path class="cls-1" d="M706.16,798.52l-.1,0C706.29,799.14,706.25,799,706.16,798.52Z"/><path class="cls-1" d="M767.27,794.75a6,6,0,0,0-1.28-1.29A5.62,5.62,0,0,0,767.27,794.75Z"/><path class="cls-1" d="M767.4,793.3c.38.24.68.4,1,.56C768.64,793.42,768.6,793.07,767.4,793.3Z"/><path class="cls-1" d="M764.15,792.64a4.79,4.79,0,0,1,1.84.82c-.18-.26-.24-.45-.15-.53C765.48,792.88,765,792.8,764.15,792.64Z"/><path class="cls-1" d="M330.15,790.05c-.09-.09-.19-.14-.29-.25C328.81,791.19,329.31,790.93,330.15,790.05Z"/><path class="cls-1" d="M613.45,796.23c.06,0,.1-.1.16-.12l-.16-.14Z"/><path class="cls-1" d="M608.91,797.94c2.29-3.52,3.27-2.93,4.54-2l-.27-8.85Z"/><path class="cls-1" d="M443.49,790.22l3.06,2.68c-3.53,4.55-6.16,3.05-3.28,6.83.23-9.51,11.57-1.17,11.88-10.68l2,2c-.57-.08-.66.47-1.22.39,3.88,4.48,2.81-6.91,7.8-5.56,1.74.74,2.94,2.12,1.77,3.25l3.86-2.34a.84.84,0,1,1-.28,1.65l5.89-.74,0,.28a30.51,30.51,0,0,1,3.72-4.76c1.49,1.37-.76,1-.39,2.18l3.3-2.29c1.29,2.49-1.44,4.84-3.69,4.49,2.93,9.5,2.74-2.41,9.22,3.3L484,792c1.89,5.44,4.3,3.54,7.68,7-.76-1.77-6.75-8.63-3.18-10.91,1,.74,2.28,1.11,4.24-.76-.06,3.38,1.81,2.59,4.15,2.46l-.28,4.47c2.54-1.23,2.41-3.52,3.95-5.5,2.8.51,3.26,4,3.82,6.94,4.45.9-2.91-5.7,2.43-6.31,3.67,1.88,6.35.16,11-2.32,2.55,1.66-.59,2.72.29,4l2.49-3.47c.57.11.33,1.2.21,1.75,2-1.3.38-4.47,3.52-5.54,1.11-4.93,5.94,7.53,10.06,2.2.86,1.33-.62,2.71-.44,4.46,5.45-3.34,4.63-2.39,9.27-7l3.45,3.17c-2.45-3.52,1.27-7.29,4.55-10.32a34.81,34.81,0,0,0-2.07-3.88c1.68-.71,3.36-1.35,5-2,.53.78-.08,2.28-1,4.08.36-.35.7-.68,1-1,1.61,1.8.51,4.3-.92,6.69-.52-.93-1-1.92-1.53-2.91-1.4,2.61-2.73,5.54-2.68,8.18a3.09,3.09,0,0,1,1.67-1.09,3,3,0,0,0-.51,1.81c.13.48.71-.46,1.58-1.54l.71,5.07.41-1.95,6,3.64c4.89-4.61,9.47-11.72,16.86-13.06-2.13,3.46-1,5.91-1.47,10.22-1.51-4.81-5.7,1.44-9.3.19,1.88.65,1.27,2.67.72,3.34l7-3.59c-.48,3.52,1.14,2.79,2.71,4.43-.62-7.11,5.35-4.13,8.26-6-.08,2.36-1,4.69-4.17,3.77,3,5.63,5.5-7.7,8.58-2.86-.81,0-1.2-.43-1.64.73,2.09-1.89,6.47.24,5.16,2.16l-.8,0a30.06,30.06,0,0,0,4.73.78,26.73,26.73,0,0,0,5.44,0c3.55-.39,6.66-1.7,7.43-4.61a72.69,72.69,0,0,1-2.06,8.19q5.94-9.35,12.06-18.67c-1.51,5,.05,17.42-4.7,19.75,1.15.89,2.59,1.88,5.47.49-.75-.84-1.13-7.63.1-7.93,2.44,6.11,1.83,3.35,5.1,8.73-1.13-1.27,1.42-9,3.42-8.45-.49,1.14-1,7.85-1.82,8.57l6.19-7c-1.47,1.22-1.2,6.57-.41,8.94-.29-1.61,4.33.77,5.78.19l-1.85-2.11c5.49,2,7.32-10.07,12.94-8.73-.95,1.48-3.29,9.6-.59,11,1.95-3.76,9-18.16,14.63-20.37l.57,2.43c1.45-.65,2.9-1.3,4.34-1.91-3.5,5.51-12.41,17-16.84,21.29,1.81,2.15.14,2.79,3.34,3.1.75,2.32-2.27,2.94-3.22,2.92l7.11,2.59c.24-2.34,1.85-3.27,3.45-4.1s3.19-1.5,3.39-3.46c-3,1.08-5.9,2.27-8.84,3.42.45-4.67,6.93-12.45,12-10.6,1,2.09-2.49,8-2.65,9.62,1-1.47,5.5-2.12,5.77-.9l-2.66,2.07c2.56,2.28,5.88-5.25,8.54-.18,1.15.52,2.44,6.62,3.17,3.93-.92-5.64,1.81-22,3.92-25.74.37.43,5.46,6.25,6.3,9.18,1.16,4.54-5,9.21-4,13.11a6.83,6.83,0,0,1,2.29-3c1,1.34-1.31,3.8,1.54,3.8,1.41-4.57,5.5,1.56,2.11-3.68,3-.77,2.66,1.56,5.85,2-.37-3.22,5-9.67,8-10.43a7.73,7.73,0,0,0,0,3.59,29.55,29.55,0,0,1,6.66,3,25,25,0,0,0,6.41,2.68c.22,1.23,2.38,3.16.86,4.92.93-.65,2-2.07,3.58-1.82,2.12,4.72-3.67-.19-2.46,5.18.82-2.65,4.95-2.79,7.6-4,.31-4.32-5-2-7.67-.83,1.32-5.75,6.67-10.87,12.75-12.28,4.64-.34,1,4.18,1.9,3.55,7.78,3,9.36-8.28,15-2.46,1.72,4.31-1.75,7.28-1.83,10.06-3.83.51-4.75-3.66-7.15-4.1l2.47,2.45c-1.42.94-4,1.28-5-.1.7,1.92,4,2.93,7.88,4,1.92.54,4,1.12,5.86,1.84a16.69,16.69,0,0,1,5,2.83c1.41-.92,3.63-1.67,3.13-3.38l-2.08,0c-1-3.42,4.76-3.05,2.66-5.1,3.17-1.34,7-3.77,10.25-1.11l-.45,4.33c.26-1.23-1.73-3.12-3.12-2.15,2.06-1.41,4.1,7.15,7.3,2.19L774,804.67c3.22-1.36,7.75-4.85,10.65-2.55-.33-4.52-.89.24-1.86-5.22.35,6.48-8.37-2.58-6.86,4.55-.86-6.19-3.5-3.48-5.36-9.08-.27,1.4.4,2.93-2.19,1.49a5.92,5.92,0,0,1-.93,1,1.17,1.17,0,0,1-.16-.15,1.28,1.28,0,0,0,.11.2c-.18.17-.2.22,0,.07a4.86,4.86,0,0,1,.85,2.46c-2.23,2.76-6.59,1.47-8.51,2.69-1.46-1.1,1.11-1.38.6-3.09l-2.86,1.83c.59-3.11-3.06-6.16,1.3-7l-3.47-1c-1.63-2.22-4.31-3.62-6.38-2.78-1.5-1.07-5,2.33-3,.3l-6,.51.13-.78a13.25,13.25,0,0,0-4.26-.49c-1.49,0-3,.19-4.55.17-3-.05-6-.75-8.52-4.24-2,.35-4.12.87-7-.71v-2.79c-2.55.34-6.55-4.18-8.16-1.64-1-7.69-11.21-4-15.11-6.11l-.86,3.45c-2.83-.78-5.8-.27-9.63.44l-.37,3.12c-3.54,2-7.48-3.67-12.41-4.27.55-1.11,1.73-.58,2.47.3a5.41,5.41,0,0,0-4.05-3.06,11.82,11.82,0,0,0-4.81.75c-3.27,1-6.49,2.26-8.71-.73a2.16,2.16,0,0,1-3.19-.56.52.52,0,0,0,.35-.11,2.16,2.16,0,0,0-.53-.13c-.5-.63-1-1.35-1.57-1.95a7,7,0,0,0,1.27,1.91,11.19,11.19,0,0,0-4.26.55l-.12-3.43c-.13,0-.23,0-.36,0-1.3-1.47-1.44,1.38-1,4a7.85,7.85,0,0,0-2.31,1.69c-.37-5.55-4.23,1.24-5-4.74-1.44,2.65-7.93,1-9.57,6.78.06-.78-.34-1.21.48-1.15-1.58-.91-3.17-1.83-4.91-.38l-.12-4.35-4.45,5.19c-1.89-2.87-2.62-4.49,0-7.48-6,4.36-4.62,1.35-9.81,5.76l.57-2.72c-1.65-.1-4.7,3.26-5.41.87-1.5-2.83-6-3.65-11.23-4.3s-11.17-1.39-15.65-4.33c1.05,8.32-4-4.09-5,2.21-.37-2-1.58-3.17.1-4.7-5,1.47-7-3.67-10.77,1.36-.39-2,1.27-2.72.87-3.91-.42.38-1.67,1.54-2.08.35s.84-1.55,1.68-2.33c-5-.09-5.94,5.8-6.73,11.33-2.27-2.83-3.55-2.6-5.61.95-.73-1.88-2-3.88,1.06-4.33-1.69-.38-10.32-3.35-10.78,1.11-.46-1.17-2.38-.49-2.86,0-3.83-.51-4.15-.94-8-.76l1,.8c-1.79,5.28-3.2,1-6.28,1.53l.11-.54c-6.8-4.2-3.09,1.73-9.79-3l.24,3.38c-.94,7.19-5.93-4.53-10-1.93l1.37,2c-2.25,2.38-5.79-10-8-10.94-.47-.64.78-1,1.47-1.43-5.68-4.4-.87,4.38-5.2,5.3-.74-2.39,1.17-6-1.73-6.52-1.43-1.93-8.56,7.47-12.45,2.9.85,1.83,1.69,3.66-.32,5-3.05.64-8.24-6.94-11-1.18a2.5,2.5,0,0,1-.55-1.44c-2.34,1.48-7.6,2.45-9,5.57-1.12-5.79-4.76-4.31-8.09-2.73s-6.37,3.26-6.45-2.08l-7.19.69.16-1.09c-4.62-.62-6.18,2.07-7.7,4.67-1.09-.68-.35-1.72-.28-2.28-6.78-1.9-7.46-1.42-12.84,4.12l-.74-3.45c-1.42,2-10-4.95-16.36-.52a2.66,2.66,0,0,1,.63-1.6c-3.58,2.26-8.16.09-12.11-1s-7.25-1-8.12,5.36l-4.63,3.49c6.36.48-.5,5.54,2.25,7.43-2.39.93-6.67-3.3-3.7-4.19l.53.59c.58-6.65-8-1.71-8.23-6.19a106.81,106.81,0,0,1-18.49.25l-4.58-.23c-1.51,0-3-.08-4.52-.09a86.88,86.88,0,0,0-8.88.33l1.94,4.92-4.07.19c-1.2-1-1.91-3.8,1-3.94-1.88-2.7-4.54,3-4.48,4.11-5.91-1.38,1.45-6.19-.29-6.1l-2.31.66.61.53c-1.65,2.3-1.53,4.5-5,4.75-2.32-.71-1.54-3-2.43-3,0-.37-.36-.49-1.34,0l-5.16.28,2.6,3.72c-2,2.29-4.8.46-1.83,4.66-2.2-3.25-7-3.21-11.6-2.6s-8.85,2-10.08,1.08c-2.67,3.42-5.76,3.86-9.66,4.13,1.1.68,2.42,5.07-1,5.06-.38-9.48-6.71-3-10.57-9.1,3.18,4-9.2,2.8-4.31,8.37-2.88-.25-.8-3.42-3.3-5.21-5.89,4.7-14.89.47-22.76,3.33.13,1.23,1.86,2.79.5,4.94l-5.53-5.15c-1.48.93,0,7.22-3.79,3.7.63.92,1.56,2.3.58,2.93-8.49-1.13-16.31,1.81-24.22,4.29a54.5,54.5,0,0,1-12.11,2.74,31.44,31.44,0,0,1-13.22-1.68c2.75,1.73,1.38,2.34-.24,2.87,1.21.26.75,2.94,1.39,4.5l-7.82-2.69c0,4.79-7,2.22-6.54,6.67l1.88-1.33c-1.38,5.79,7,10.15,8.3,16.74,1.54-6.57,10.34,6.32,13.2-3.26,1.45,1-.41,2.35.58,3.69.54-3.12,2-4.07,5.14-3.54l-.15.78a26.8,26.8,0,0,1,10.14-1.45c1.6,0,3.25.17,5.09.25s3.86.12,6.24.09l-1.43-3.08c2.05,0,2.7.91,3.8,1.52,1.1-5.41-5.55,1-4.77-4.9,4.12,6,13.82-3,17.22,4.07,3-.63-1.7-3.55,1.31-4.18l1.23,1.85.2-2.79c2.06,0,3.6,2.36,4,4-.52-.1-1.26.76-1.74,1,3.06,1.87,7-2.28,8.06-1.68l-3.14-.66c3.9-1.79,8.5-2.53,13-3.54,1.13-.25,2.25-.52,3.35-.83s2.2-.6,3.26-1a21.17,21.17,0,0,0,5.93-3.16l-.89-1.42c5.59-4,5.19.8,11.65-1.75l-.18.41a5.78,5.78,0,0,1,4.61-3c-1.39,2.08,3.78,3,1.9,5.36,6.11-4.14,2.86-2.94,6.32-9.39l1.43,2.41c1.12-2.57,1-3.81,4.32-5-2.41,2.65,2.76,3.56.12,7,7.87,4.44,9.63-7.24,14.07.49,2.22-7.56-6.69-3.08-5.09-4.86-1.87-2.11,1.91-5.69,4.24-5.29,2.3-.16,5.15,8.56,10.78,7.63-.57,0-.53.59-1.1.63,2.36,1.53,3.83-3.06,6.82-.43.91-4.49,3.41-.16,3.14-5.71l-5.06,1.91c2.76-1.81,4.75-8.57,10-6a10,10,0,0,1-2.42,3.72c1.62,1.45,2.62-1.41,4.3.08.24,5.56-6.21,2-8.84,6.53,1.82,2.14,5.48-4.7,4.64,1.45,1.35-7.85,5.69.3,8.85-6l.13,3.33c.54-.59,1.63-2.3,2.76-2.35l-1.54,4.52c2.69-4,6.33,2.46,9.09.2-6.23.73-1.83-3.85-4.74-6,7.27-5.22,5.37,8.19,13.8,5.75-1.11.58-4.57-1.55-2.9-3.27a10.23,10.23,0,0,1,5.18,3.22c5.64-1.26-1.21-3.32,1-5.6,2.33,3.84,2.66-1.92,5.06-3.46l.32,3.37c6.73,1.59,1.13-7.17,7.26-5l-2.1,4.86,3-1.45-.32,3.88c3.1-3.1,4.2-2.45,7.55-1.63-.94-2.3,0-6.14,2.87-6.47,2.12,1.84-.88,3.28,3.2,2.48-.78,2.18-1.6,4.9-3.61,2-.11,1.11-.76,2.18-.87,3.28,2.29,2.13,5.36.1,6.85,0a2.61,2.61,0,0,1-1.66-.65c1.87-1.73,3.75-3.38,5.64-5.06,1,1.21.34,2.27-.33,3.32,1.18-.44,1.92-2,3.68-2.43-.29,2.76,0,5.59-2.43,7l5.47-3.37c.45,1.17,3.09,3.11,2.41,4.16,3.21,1.45,7.4-5.8,11.67-3.85a2.68,2.68,0,0,1,1.47-1.48c4,.47,7.53,3.7,12-.23l2.79,4.82c3.59-1.25-3.77-6.06,2.24-8.14,4.25-1.74,1.72,4.14,3.26,5.46,2.05-2.51,5.67-7.63,9.69-3.69C445.74,790.54,444.71,789.83,443.49,790.22ZM488.41,788c-.88.69-2.65,2.84-3.26.83C486.21,785,487,786.85,488.41,788Zm68.92-4.67c-.74,1-1.7.42-2.73-1A2.78,2.78,0,0,1,557.33,783.33Zm194.8,8.83-.14.14C750.38,790.54,750.94,791.22,752.13,792.16Zm3.65,2.43a1.27,1.27,0,0,0,.56-1.31c-.49.75-1.41.59-2.38.09C754,794.3,754.39,795,755.78,794.59ZM314.4,769.15l.92.77C313.65,771.14,314,770.19,314.4,769.15Z"/><path class="cls-1" d="M549.21,787.28a5.74,5.74,0,0,1-.24-1.85A1.31,1.31,0,0,0,549.21,787.28Z"/><path class="cls-1" d="M415.68,792.89c-.05,0-.09,0-.14,0a3.52,3.52,0,0,0-.11.62Z"/><path class="cls-1" d="M687.57,808.25a3.88,3.88,0,0,1-1.23-2C686.13,807,686.37,807.78,687.57,808.25Z"/><path class="cls-1" d="M778.53,794.81l-2.81.15c1.29.17,1.54,1,2,1.7C777.9,795.88,777.71,794.65,778.53,794.81Z"/><path class="cls-1" d="M794.72,821.3c.48-.29.79.19,1.27-.1l.36-1.53C794.75,819.3,793.29,820.19,794.72,821.3Z"/><path class="cls-1" d="M777.86,806.26c-.57,2.78,1.28,2.3,3.2,2.33a.8.8,0,0,1-.31-.09C782.36,804.85,780.11,805.51,777.86,806.26Z"/><path class="cls-1" d="M781.5,808.62a3.77,3.77,0,0,1,1.66.41C783.81,807.57,782.58,808.52,781.5,808.62Z"/><path class="cls-1" d="M761.35,794.11c.66.94,1.46-3.36,1.65-2.11C764.88,788.77,756.19,794.67,761.35,794.11Z"/><polygon class="cls-1" points="776.74 815.66 777.07 812.11 775.3 814.56 776.74 815.66"/><path class="cls-1" d="M763.44,809.35l2.57,1.72a1.28,1.28,0,0,1,1.08-1C765.37,809.53,763.64,808.33,763.44,809.35Z"/><path class="cls-1" d="M767.09,810.12a2.86,2.86,0,0,0,2.44.06A6.24,6.24,0,0,0,767.09,810.12Z"/><polygon class="cls-1" points="772.59 815.62 771.95 814.68 770.02 813.89 772.59 815.62"/><path class="cls-1" d="M733,800.82l-3.36.24c-.6,1.1.08,2,1.35,1.81C731.93,802.22,733.19,802.06,733,800.82Z"/><path class="cls-1" d="M740.07,812.5c-.66-.92-.52-1.69-.72-2.93l-1.14,4.19Z"/><path class="cls-1" d="M730.83,811.22c-.59,1.07-5.29,2.32-1.31,3C730.11,813.09,733.43,812.9,730.83,811.22Z"/><polygon class="cls-1" points="685.08 795.58 685.89 795.67 687.15 788.66 685.08 795.58"/><path class="cls-1" d="M640.62,805c3.41,2.3,1.57-4.2,4.56-1.54,1.14-1.52-2.45-2.17-1.33-3.46C641.34,801.41,640.33,800.22,640.62,805Z"/><path class="cls-1" d="M643.85,800a8.11,8.11,0,0,0,1.31-.88A3.83,3.83,0,0,0,643.85,800Z"/><polygon class="cls-1" points="165.83 795.73 163.04 794.94 165.23 796.83 165.83 795.73"/><path class="cls-1" d="M162.66,802.06l-1.78-4.22-.33,4.34C161,801.84,162,801.18,162.66,802.06Z"/><path class="cls-1" d="M494.86,797.31l.21-1.09c-.34-1.19-.89-1.29-2-1.5Z"/><polygon class="cls-1" points="462.48 793.53 463.04 793.63 461.98 789.52 462.48 793.53"/><path class="cls-1" d="M435.39,799.19c1.11.12,2.38-.8,3.5-.65C436.5,799.31,434.94,794.09,435.39,799.19Z"/><path class="cls-1" d="M894.23,709.51c1.09.31.93-1.82,1.14-2.18C893.45,707.59,894.22,710.05,894.23,709.51Z"/><polygon class="cls-1" points="875.35 712.21 875.77 711.4 872.84 713.19 875.35 712.21"/><path class="cls-1" d="M858.2,710.39c1.26,3.72,6.27.06,9.2,1.64l.42.86,1.68-2.72C865.73,710.25,860.71,711.65,858.2,710.39Z"/><path class="cls-1" d="M849.79,701.81c.43,1.44-2.1,1,2.1.64a2.38,2.38,0,0,1-.36-.39A10,10,0,0,1,849.79,701.81Z"/><path class="cls-1" d="M851.53,702.06c1.83.08-1.07-1.27,0,0Z"/><path class="cls-1" d="M843.08,702.05l2.51-1c-.42-.87-2.53-1.25-1.69-1.77C841.39,699.72,841.82,700.58,843.08,702.05Z"/><path class="cls-1" d="M840.58,704.43l1.28-.41C841.68,703.66,841.36,703.51,840.58,704.43Z"/><path class="cls-1" d="M844.59,703.17l-2.73.85c.29.61.22,1.77,1.24-.28C842.79,704.77,843.4,703.8,844.59,703.17Z"/><path class="cls-1" d="M846,703.85c1.27.9,3,1.56.44,2.55C851.07,706.36,850.64,703.8,846,703.85Z"/><path class="cls-1" d="M857,714l1.67,1.22,1.67-1C859.47,714.68,857,712.85,857,714Z"/><path class="cls-1" d="M828.36,698.85c-.22.75.63,2.09.72,3.07l1.84-.71C830.06,700.61,828.38,700,828.36,698.85Z"/><path class="cls-1" d="M829.08,701.92,826.32,703C828.67,703.35,829.15,702.77,829.08,701.92Z"/><polygon class="cls-1" points="839.78 708.34 844.37 706.01 838.95 708.3 839.78 708.34"/><polygon class="cls-1" points="818.27 697.88 819.92 696.26 817.02 698.68 818.27 697.88"/><path class="cls-1" d="M811.55,697.63c1.23-1.36-1.32-2.58-.08-3.37-1.84.11-3.5,1.22-5,2.23C808,696,809.59,696.28,811.55,697.63Z"/><path class="cls-1" d="M804,697.94a13.26,13.26,0,0,0,2.48-1.45A7,7,0,0,0,804,697.94Z"/><path class="cls-1" d="M821.86,702.22a3.39,3.39,0,0,0-1.89-2.34l.85,2.22Z"/><path class="cls-1" d="M820.85,702.17l0-.07-2.23-.31Z"/><path class="cls-1" d="M822.12,702.26l-.26,0C821.94,702.44,822,702.52,822.12,702.26Z"/><path class="cls-1" d="M833.05,705.78c-1.66,1-5,2-2,4.13C832.26,708.55,830.56,707.35,833.05,705.78Z"/><path class="cls-1" d="M823.18,705l2.76.73c0-.57-.44-1.43.38-2Z"/><polygon class="cls-1" points="821.75 705.59 823.18 705.03 822.16 704.76 821.75 705.59"/><path class="cls-1" d="M808.65,700.32a7.33,7.33,0,0,1-4.12.83,19.48,19.48,0,0,0,4.78,1C809.59,701.53,810.38,700.38,808.65,700.32Z"/><path class="cls-1" d="M814.57,701.4c-.09,0-.2.06-.28.1C814.44,701.7,814.57,701.76,814.57,701.4Z"/><path class="cls-1" d="M789.78,700c.08.12.14.27.21.4l.08-.36Z"/><path class="cls-1" d="M809.55,702.6a2.33,2.33,0,0,0,2.67-.55,13.81,13.81,0,0,1-2.91.13C809.19,702.47,809.15,702.67,809.55,702.6Z"/><path class="cls-1" d="M799.81,698.62a13.11,13.11,0,0,0,2,1.33C801.25,699.23,800.08,698.08,799.81,698.62Z"/><path class="cls-1" d="M813.93,700.88a.64.64,0,0,1,.19-.08C813.76,700.31,813.79,700.54,813.93,700.88Z"/><path class="cls-1" d="M813.93,700.88a6.66,6.66,0,0,0-1.71,1.17,8.16,8.16,0,0,0,2.07-.55A2.52,2.52,0,0,1,813.93,700.88Z"/><path class="cls-1" d="M784.33,713.36c.35-2,3.65-3.56,6.22-1.24,2.79-1.28,1.53-7.91-.56-11.71-.15.85-.2,1.65-3.06,2.62.89,1.14,6,3,3.49,4.58-3.74.75-2.95-.91-4.66-2.09,1.34,2.57-4.92,3.25-4.37,6.92l3.29-1C784.7,712,783.48,712.78,784.33,713.36Z"/><path class="cls-1" d="M795.26,701l1.16-.16c-1.28-.44-2.15-1.31-3.75-3-2,.82-2.42,1.53-2.6,2.18l5.6.69Z"/><path class="cls-1" d="M801.54,701.24c-1.06,2.08-3.86,2.78-2.37,5.23,3.35.11,2.48-1.61,4.55-2.39-5.44.12,1.65-1.07-2.16-2.59a12,12,0,0,1,3-.34,19.13,19.13,0,0,1-2.72-1.2l.11.14h0v0c.21.29.28.46,0,.28,0,0-.09,0-.12,0a3,3,0,0,1-.31.79c-1.53-.57-.2-.58.31-.79a1.92,1.92,0,0,0,.09-.32l0,0-5.5.76A15.47,15.47,0,0,0,801.54,701.24Z"/><path class="cls-1" d="M827.73,714.27a.71.71,0,0,1-.13-.51C827.23,714,827.08,714.16,827.73,714.27Z"/><path class="cls-1" d="M825.63,712.78c.41-.26.82-1.09,2.07-.76,1,.74-.1,1-.1,1.74.82-.51,2.82-1.31.51-2.57l-.41.26c-2.1-.92-4.66-3.84-4.26-4.11A15.6,15.6,0,0,0,825.63,712.78Z"/><path class="cls-1" d="M813.41,707.52l-4.58.68,2.13,2,0-1.12C813.46,709.77,813,708.35,813.41,707.52Z"/><polygon class="cls-1" points="789.35 698.9 790.11 696.67 787.27 699.69 789.35 698.9"/><polygon class="cls-1" points="783.47 698.74 783.82 696.79 782.19 697.87 783.47 698.74"/><path class="cls-1" d="M450.24,698.05h-1.55A4.57,4.57,0,0,0,450.24,698.05Z"/><path class="cls-1" d="M460,701.56l.53-.86C459.88,701.07,459.57,701.39,460,701.56Z"/><path class="cls-1" d="M639.17,693.11c-1.91-1.86-4-4.74-3.83-2.51l.58,2.17A4.11,4.11,0,0,1,639.17,693.11Z"/><path class="cls-1" d="M540.77,703.17l.51.7,1.46-2C542.15,702.31,541.48,702.72,540.77,703.17Z"/><path class="cls-1" d="M538.66,712l-2.45-1.6A8.77,8.77,0,0,0,538.66,712Z"/><path class="cls-1" d="M424.47,641l-1.2-2.49C422.09,640.77,423.6,640.27,424.47,641Z"/><path class="cls-1" d="M723.36,696a11.3,11.3,0,0,0-4.1-1.51C721.21,695.78,722.74,697.73,723.36,696Z"/><path class="cls-1" d="M461.72,677.75c-.84.13-1.29.44-1.44.9C461.15,678.56,461.7,678.31,461.72,677.75Z"/><path class="cls-1" d="M714.44,694.23c.28.23.57.35.86.55a9.66,9.66,0,0,1,4-.34C717.82,693.45,716.14,692.79,714.44,694.23Z"/><path class="cls-1" d="M481.64,633.87a2.76,2.76,0,0,1-.47-.2C481.16,634,481.36,634,481.64,633.87Z"/><path class="cls-1" d="M424.79,616.17A12.3,12.3,0,0,1,427,616,3.92,3.92,0,0,0,424.79,616.17Z"/><path class="cls-1" d="M759.94,696.23c1.25-.07.21-.23,0,0Z"/><path class="cls-1" d="M765.43,705.17a1.43,1.43,0,0,0-.56,1A1.94,1.94,0,0,1,765.43,705.17Z"/><path class="cls-1" d="M701.49,707.19h-.11C701.74,707.62,701.68,707.53,701.49,707.19Z"/><path class="cls-1" d="M761.75,697.33a6.54,6.54,0,0,0-1.55-.74A7,7,0,0,0,761.75,697.33Z"/><path class="cls-1" d="M761.56,696.29c.42.12.76.2,1.07.28C762.81,696.22,762.69,696,761.56,696.29Z"/><path class="cls-1" d="M758.2,696.24a6.56,6.56,0,0,1,2,.35c-.24-.17-.33-.29-.26-.36C759.57,696.24,759.05,696.25,758.2,696.24Z"/><path class="cls-1" d="M494.16,579.22c.11,0,.22,0,.35.07C495.42,577.93,494.91,578.29,494.16,579.22Z"/><path class="cls-1" d="M606.7,715.4c.06,0,.09-.07.15-.1l-.18-.08Z"/><path class="cls-1" d="M602.21,717c1.94-2.68,3-2.33,4.46-1.75L605.26,709Z"/><path class="cls-1" d="M425.34,682.3a27.59,27.59,0,0,0,.9,2.65c.34.85.62,1.68,1,2.46a11.52,11.52,0,0,1-2.22-.87,15.56,15.56,0,0,1-2-1.23c-1.13-.84-2-1.6-2.62-2.1s-1-.68-1.15-.35a5.37,5.37,0,0,0,.11,2.77,3,3,0,0,1,2.37-.16,10.28,10.28,0,0,1,2.56,1.4c.44.31.84.61,1.27,1s.87.66,1.31,1c.87.75,1.78,1.46,2.69,2.17,3.64,2.83,7.39,4.66,9.27,1.83.53.84,1.09,1.7,1.67,2.51-.65-.4-.95-.1-1.59-.53,1.57,2.69,3.06,2,4.68,1.06s3.26-2.22,5.65-.7c1.6,1.17,2.53,2.57,1,2.85,1.55,0,3.09,0,4.63-.09,1.14.54.47,1.55-.67,1l3.19.82,3.21.73-.11.17a33,33,0,0,1,4.84-2.12c1.29,1.39-1,.46-.82,1.39,1.29-.19,2.58-.4,3.86-.64.95,2.06-2.35,3-4.68,2,.68,3.73,1.56,3.53,3,3.09s3.32-1.08,6.39,1.68l-3.52,0a5.65,5.65,0,0,0,3,3.77,18.63,18.63,0,0,1,4.51,2.94c-.32-.71-1.92-2.62-2.86-4.43s-1.26-3.56.81-4c.94.72,2.31,1.3,4.61.37-.47,2.36,1.65,2.21,4.16,2.54l-.77,3.11c2.88-.4,3-2,4.79-3.18,2.92.83,3.13,3.38,3.5,5.55,4.71,1.27-2.66-4.45,3.08-4.14,3.76,1.82,6.74.94,11.66-.32,2.57,1.48-.75,1.88.11,2.92l2.76-2.2c.58.14.28.89.13,1.27,2.17-.71.59-3.14,3.9-3.58,1.3-3.39,6,5.91,10.46,2.43.89,1-.69,1.89-.53,3.15,5.79-2,4.93-1.41,9.77-4.47,1.21.82,2.42,1.66,3.63,2.45-2.6-2.62,1.26-5.16,4.56-7.23a30.68,30.68,0,0,0-2.17-2.85l5.09-1.31c.55.58,0,1.63-1,2.9.36-.24.7-.47,1-.69,1.68,1.32.63,3.09-.79,4.76-.56-.68-1.11-1.39-1.64-2.11-1.39,1.84-2.73,3.89-2.63,5.77a3.5,3.5,0,0,1,1.72-.72c-.37.5-.61,1-.49,1.28s.73-.31,1.61-1.06l.87,3.65.38-1.39q3.21,1.4,6.44,2.7c2.49-1.63,4.83-3.71,7.48-5.5a21.93,21.93,0,0,1,9.33-3.91c-2,2.53-.59,4.25-.84,7.34-1.87-3.39-5.84,1.13-9.69.22,2,.48,1.47,1.93.93,2.4l7.07-2.62c-.28,2.52,1.38,2,3.14,3.1-1.14-5,5.29-3.1,8.15-4.55.11,1.68-.62,3.38-4,2.84,3.65,3.91,5.1-5.69,8.69-2.36-.84,0-1.28-.26-1.64.58,2-1.4,6.72-.12,5.56,1.32h-.83c5.53.77,16.87.4,17.75-3.84a36.55,36.55,0,0,1-1.15,6c3.37-4.7,6.71-9.45,10-14.18-.91,3.65,2.34,12.38-2.27,14.39a6.24,6.24,0,0,0,5.72-.1c-.89-.53-2.18-5.3-1-5.62,3.33,4.1,2.32,2.19,6.44,5.69-1.34-.79.19-6.51,2.31-6.31-.33.85.14,5.65-.64,6.24l5.32-5.58c-1.32,1-.26,4.76.91,6.36-.54-1.11,4.56.13,6-.42l-2.23-1.32c5.95.88,5.93-7.87,11.83-7.54-.72,1.15-1.81,7.14,1.19,7.86,1.39-2.87,6.18-13.8,11.45-16l1,1.65,4-1.83c-2.56,4.29-9.65,13.36-13.49,16.87,2.21,1.32.61,2,3.93,1.83,1.16,1.55-1.83,2.32-2.81,2.4l7.72,1.07c-.3-3.37,6-3.3,5.69-6.1l-8.44,3.39c-.31-3.36,5-9.51,10.45-8.83,1.38,1.36-1.12,6-1,7.09.72-1.14,5.23-2.14,5.72-1.31l-2.35,1.77c3,1.3,5-4.38,8.64-1.09,1.26.24,3.67,4.41,3.93,2.42-2-3.88-2.11-15.75-.65-18.6.45.26,6.61,3.84,8,5.79,2,3.07-3.34,7.06-1.64,9.7a4.54,4.54,0,0,1,1.77-2.36c1.3.82-.63,2.82,2.26,2.5.59-3.39,5.84.46,1.45-2.84,2.86-.89,3,.81,6.31.78-1-2.24,3.27-7.37,6.15-8.24a4.22,4.22,0,0,0,.68,2.54c5.8.54,8.85,2.24,14.26,2.5.47.84,3,2,1.85,3.38.8-.57,1.57-1.69,3.25-1.69,3.08,3.1-3.74.28-1.45,3.94.3-2,4.44-2.53,6.88-3.64-.58-3.1-5.47-.86-7.9.26.18-4.21,4.54-8.42,10.32-10.1,4.56-.81,1.81,2.82,2.62,2.27,8.42,1.19,7.62-7,14.49-3.54,2.64,2.84-.18,5.34.33,7.31-3.72.8-5.54-2-8-2l3,1.43c-1.21.83-3.7,1.37-5,.53,2.2,2.52,14.25,1.25,20.63,3.88,1.22-.83,3.27-1.64,2.39-2.77l-2.08.24c-1.77-2.28,4.07-2.75,1.52-3.92,2.86-1.35,6.13-3.55,9.95-2.07l.53,3.11c0-.9-2.43-2-3.58-1.13,1.71-1.26,5.7,4.54,7.75.65l-2.59-2.3c2.88-1.35,6.55-4.36,10-3.16-1.37-3.13-.82.29-3-3.41,1.83,4.54-8.86-.79-5.74,4.06-2.25-4.27-4.25-2-7.33-5.74,0,1,1,2-1.84,1.33a4.42,4.42,0,0,1-.69.85l-.19-.09s.09.09.15.13c-.14.14-.15.17.06,0a3.76,3.76,0,0,1,1.38,1.63c-1.59,2.23-6.21,1.86-7.84,3-1.7-.59.79-1.12-.09-2.25L753,701.5c-.1-2.25-4.37-4-.22-5.07l-3.66-.31c-2.08-1.38-5-2-6.91-1.22-1.7-.57-4.5,2.26-2.9.58l-5.82,1.08,0-.56c-5.66-.59-11.85,3.14-18.14-1.22a12.92,12.92,0,0,1-7.11.31l-.54-2c-2.48.56-7.29-2.24-8.43-.26-1.22-2.66-4.19-3.06-7.39-2.93s-6.67.83-8.83.3l-.24,2.53c-3-.24-5.87.43-9.59,1.36l.18,2.25c-3.23,1.76-8.16-1.75-13.2-1.59.35-.85,1.62-.61,2.52-.08-6-5.16-12.72,3.54-18.12-.19a2.85,2.85,0,0,1-3.28,0,.63.63,0,0,0,.33-.12,2.3,2.3,0,0,0-.55,0c-.6-.39-1.21-.85-1.88-1.21a6.28,6.28,0,0,0,1.58,1.21,15.26,15.26,0,0,0-4.19.86l-.64-2.41c-.13,0-.23,0-.36.07-1.52-.9-1.23,1.13-.43,2.95a7.52,7.52,0,0,0-2.06,1.44c-1.21-3.9-4.07,1.28-5.73-2.87-1.06,2-7.79,1.47-8.64,5.72-.05-.56-.51-.82.33-.85-1.72-.5-3.44-1-5,.19l-.7-3.06-3.8,4.07c-2.27-1.89-3.2-3-.91-5.32-5.51,3.56-4.45,1.33-9.16,4.84l.26-2c-1.66,0-4.37,2.65-5.34,1-3.64-3.8-18.39-.93-27.71-4.88,1.56,5.91-4.28-2.82-4.87,1.67-.48-1.4-1.76-2.25-.17-3.36-4.9,1.13-7.07-2.63-10.64,1-.46-1.41,1.16-1.94.72-2.8-.4.28-1.6,1.1-2,.25s.78-1.11,1.57-1.66c-4.89-.07-5.7,4.08-6.37,8-2.35-2.09-3.61-1.93-5.64.53-.76-1.37-2.09-2.84,1-3.06-1.72-.28-10.29-2.88-10.79.28-.45-.86-2.38-.48-2.87-.16-3.83-.6-4.13-1-7.94-1.11l1,.64c-2,3.64-3.25.48-6.36.55l.14-.38c-6.65-3.7-3.23.92-9.68-3.19l0,2.43c-1.4,5-5.67-3.9-9.9-2.6l1.21,1.58c-2.5,1.39-4.86-7.94-6.79-9-.38-.52.86-.57,1.55-.77-4.91-4-1.29,3-5.55,2.86-.41-1.81,1.82-4-.83-4.89-.53-.83-2.77.12-5.28.69s-5.28.78-6.66-1.27c.45,1.47.92,3-1.2,3.39-1.49-.2-3.08-1.91-4.67-3.26s-3.26-2.24-5.2-.72a1.52,1.52,0,0,1-.15-1.14,44,44,0,0,1-4.85-.19c-1.77-.1-3.6,0-4.59.72.78-4.16-2.13-4.46-4.94-5.12s-5.32-1.69-2.37-4.16a10.16,10.16,0,0,1-2.34-3l.77-.18c0-.29-.13-.54-.18-.77a2.34,2.34,0,0,0-.28-.62,3.07,3.07,0,0,0-.82-1,8,8,0,0,0-1.17-.8c-.41-.27-.88-.53-1.31-.82.58-.66,1.25-.09,1.65,0,.46-.94.92-1.59,1.19-2.09a5.36,5.36,0,0,0,.58-1.91c.15-1.37-.27-3-.69-6.33l2.48.61c-.28-1,1.62-2.7,3.77-4.91s4.4-5,4.83-8.46a1.77,1.77,0,0,1,.59,1.18c.62-3.81,4.39-6.52,7.27-8.91s4.87-4.64,2.1-8.5l1.27-5.06c-2.22,2.16-2.85,1.37-3.24.15s-.56-2.88-2-2.34a4.64,4.64,0,0,1,3.39-2.11c1.21-.16,2.05.3,1.22,1.58l-.65.06c1.42,1.94,3,.78,4.51-.57s3.05-2.82,4.13-1.66a57.05,57.05,0,0,1,13.66-10.49l3.66-2c1.24-.58,2.47-1.15,3.67-1.75l3.64-1.6.89-.41,1-.42L499,596c-.89-.93-1.8-1.85-2.72-2.75,1.2-.51,2.39-1,3.55-1.42,1.23.41,2.29,2.11-.11,3,1.06.65,1.83-.15,2.35-1.23a6.25,6.25,0,0,0,.71-2.77c2.54-.1,2.33,1.11,1.85,2.2s-1.37,2.22-.71,2,1.09-.59,1.62-.85l-.52-.28c.46-.95.62-1.79,1-2.48a2.68,2.68,0,0,1,2.31-1.35c1.68.51,1.06,2.14,1.64,2.21,0,.27.21.35.81.06a9.8,9.8,0,0,1,2.53.52,17.48,17.48,0,0,0-.68-3c1.62-1.25,3.09.85,2.21-2.78.79,2.74,3.37,4.14,4.92,6a8.35,8.35,0,0,1,1.75,2.73c.31.88.3,1.61-.08,1.87A2.81,2.81,0,0,1,523,600a3,3,0,0,1-1.21,2.2,3.66,3.66,0,0,1,1.89,1c.61.58.83,1.49-.33,2.3a5.7,5.7,0,0,0-2.46-2.31,3.11,3.11,0,0,0-2,0c-1.4.34-3.37,1-5.49-.76,1.63,1-.23,2.08-2,3.15s-3.42,2.17-1,3.73c-2.69.36-1-2.3-3.35-3.17-2.51,2.19-6,2.72-9.74,2.91s-7.71.08-11.63,1.17c0,.89,1.59,2,.07,3.57l-5-3.67c-1.51.67-.72,5.24-4.08,2.64.52.67,1.29,1.69.25,2.12-8.24-1-16.23.74-24.43,1.78s-16.52,1.31-24.65-2.61c2.21,1.66.75,1.87-.93,1.94,1.1.4,0,2.17.22,3.36q-3.44-1.62-6.82-3.31c-1.28,3.32-7.29.11-8.09,3.23l2.18-.51c-3,3.68,3.88,8.38,3.42,13.16,1.7-2.1,3.86-.51,6.34.83s5.26,2.43,7.94-.67c1.23,1-1,1.56-.33,2.66,1.36-2.07,3-2.56,6.16-1.73l-.34.52c8.74-.85,12.58,1,22.59,1.44l-.94-2.29c2.14.12,2.65.82,3.7,1.32,2.07-3.8-5.95.35-4.1-3.8,1.6,2.28,5.33,1.94,8.94,1.64s7.11-.56,8.42,2c3.25-.4-1.31-2.59,1.93-3l1.06,1.34.55-2a3.93,3.93,0,0,1,3.77,2.91c-.54-.06-1.42.56-2,.75,3,1.33,7.71-1.79,8.75-1.39l-3.28-.39c4.31-1.39,9.31-2.12,14.32-3.31s10-2.88,13.86-5.85l-1-.82c2.93-2.13,4.3-2.38,5.85-2.55a12.43,12.43,0,0,0,2.67-.49,14.48,14.48,0,0,0,4.36-2.43l-.15.4a27.45,27.45,0,0,1,4.76-5.87c-.42,1.42.88,1,2.21.4s2.62-1.32,1.93.85a18.12,18.12,0,0,0,2.08-6.31,5.31,5.31,0,0,0-.19-2.59,13,13,0,0,0-1-1.74c-.45-.74-1-1.84-2.06-3.41a20.06,20.06,0,0,0,1.82-1.54c-.93-1.07-1.64-1.54-2.28-2.32a23.08,23.08,0,0,1-2.25-3.76c1.39,1.38,1.82.56,2.28-.42s.93-2,2.81-.06a11.66,11.66,0,0,0-2.64-7.35,14.42,14.42,0,0,0-4.77-3.64,30.52,30.52,0,0,1-4-2.09,6.65,6.65,0,0,1-1.45-1.45,9.16,9.16,0,0,1-1.09-2.26c-1.68.7-1.93,1.49-1.6,2.19a6.67,6.67,0,0,0,2.36,2c2.09,1.26,4.4,2.76,3,2.4.35,1.34-1,1.46-2.58,1.26a13.55,13.55,0,0,1-4.65-1.39c-1.27-.5-1.87-2.44-3.45-4.37a9,9,0,0,0-5.65-3.37,10,10,0,0,0-2.8-.07c.81,0,.82-.46,1.65-.47-1.59-.57-3.08.05-4.51.65a6.81,6.81,0,0,1-4.82.63,3.2,3.2,0,0,1-2.32,2.4c-.81.35-1.43.76-.94,2.7a46.68,46.68,0,0,1,5.76-2.81c-1.71,1-2.93,2.84-4.36,4.44a7.85,7.85,0,0,1-5.93,3.08,7.92,7.92,0,0,1,1.83-3.52c-2-.41-2.49,2-4.44,1.6-.67-1.87.8-2.85,2.82-3.86s4.57-2,6.08-4.05c-1.22-.49-2.83.84-3.93,1.71s-1.88,1.28-1.82-1.08c-.24,3.06-1.76,3.55-3.54,4a9.42,9.42,0,0,0-2.65,1,5.28,5.28,0,0,0-2.13,2.89l-.87-2.23c-.46.69-1.24,2.32-2.36,3,.13-1.31.34-2.56.55-3.85-1,2-2.75,2.48-4.67,2.79s-3.85.6-4.91,2.22c3-2.2,3.83-1.77,4.23-.93s.51,2.17,2.27,2.09a14.74,14.74,0,0,1-1,1.19,9,9,0,0,1-.93.87,4.18,4.18,0,0,1-1.7.87,6.42,6.42,0,0,1-3.25-.35,8.29,8.29,0,0,0-3.64-.39,8.14,8.14,0,0,0-4.71,2.85c.81-1.21,4.92-2.18,3.92,0-1.82.81-4.27,1.81-6,1.65-2.36,2.44-1.69,2.74-.68,2.76s2.46-.15,1.95,1.34c-3.58-.57-1.57,3.07-2.86,5.69l-1.73-1.69c-6.23,4.3,2.23,4.81-3.48,8.39-.23-1.42-.45-2.85-.65-4.3l-1.64,3.15-1.6-2.34a10.74,10.74,0,0,1-1.74,4.25,23,23,0,0,1-3.22,2.9c1.85.37,3.15,3.08,1.31,5.63a1.4,1.4,0,0,1-1.79-.36c-.27-.22-.57-.08-1.73,1.87-.64-1.71-1.5-3.78,1.5-4-.51-.64-.59-1.73-1.08-2.37a6.1,6.1,0,0,0-3.12,2.83c-.73,1.22-1.23,2.49-1.71,3.18a3.86,3.86,0,0,1,1.51-1.15l-.55,3.67-.43,3.67c-1.33.36-1.49-.72-1.63-1.8-.51,1.27-.13,2.63-1,4.39-1.38-1.48-3.19-2.46-2.39-5.33-.59,2.17-1.07,4.37-1.56,6.53-1-.1-3.7,1.57-3.89.5-1.38,1.23-1.69,3.58-2,6s-.73,5-2.44,6.66a2.79,2.79,0,0,1,.13,2c-1.17,1.76-2.79,3.4-4.14,5.73a14.38,14.38,0,0,0-1.61,4.1c-.1.41-.15.76-.24,1.29s-.11,1-.14,1.48a13.79,13.79,0,0,0,.19,3,30.34,30.34,0,0,0-3.89,4.56c.51,3.49,1.56,1.64,2.68.59.56-.53,1.2-.9,1.72-.5s1,1.52,1.59,3.9a9.49,9.49,0,0,1,.64,3.29,1.29,1.29,0,0,1-.93,1.12c-.94.38-2.33.19-2.41,1.65.72.79,1.66,1.66,2.62,2.59s2.06,1.89,3.16,2.88c.54.49,1,1,1.55,1.57a15.22,15.22,0,0,1,1.46,1.72,14.37,14.37,0,0,1,2.29,4,6.14,6.14,0,0,1-2.18-1.75l-.95-1.12A14.47,14.47,0,0,0,425.34,682.3Zm49.53,22.13c-1,.3-3.27,1.35-3.61-.19C473,701.8,473.46,703.3,474.87,704.43Zm72.44,3.91c-.74.75-1.76.27-2.87-.73A4,4,0,0,1,547.31,708.34Zm198.87-11-.1.11C744.11,696.43,744.8,696.84,746.18,697.37Zm4.15,1.29a.7.7,0,0,0,.27-1c-.33.59-1.27.58-2.34.34C748.52,698.66,749,699.13,750.33,698.66ZM510.19,591.37l-.59-.58C510.78,590,510.46,590.67,510.19,591.37Z"/><path class="cls-1" d="M538.93,711a3.13,3.13,0,0,1-.28-1.34C538.26,710,538.21,710.48,538.93,711Z"/><path class="cls-1" d="M424.69,641.41l.1-.12a1.3,1.3,0,0,0-.32-.34Z"/><path class="cls-1" d="M684.48,716.11a3.51,3.51,0,0,1-1.61-1.3C682.8,715.4,683.18,715.91,684.48,716.11Z"/><path class="cls-1" d="M772.89,696l-2.74.45a3.27,3.27,0,0,1,2.37,1C772.5,696.81,772,696,772.89,696Z"/><path class="cls-1" d="M795.15,712.53c.42-.26.83,0,1.24-.23l0-1.13C794.7,711.11,793.46,711.93,795.15,712.53Z"/><path class="cls-1" d="M774.84,704.14c.07,2,1.8,1.46,3.71,1.22a.93.93,0,0,1-.33,0C779,702.54,776.9,703.34,774.84,704.14Z"/><path class="cls-1" d="M779,705.32a5.12,5.12,0,0,1,1.75.07C781,704.27,780.05,705.1,779,705.32Z"/><path class="cls-1" d="M755.75,697.63c.86.58.72-2.55,1.17-1.7C758.08,693.41,750.76,698.69,755.75,697.63Z"/><polygon class="cls-1" points="775.9 710.91 775.4 708.37 774.21 710.31 775.9 710.91"/><path class="cls-1" d="M761.19,708.1l3,.88c0-.42.37-.64.85-.8C763.16,708,761.16,707.36,761.19,708.1Z"/><path class="cls-1" d="M765,708.18a3.94,3.94,0,0,0,2.45-.26A8.44,8.44,0,0,0,765,708.18Z"/><polygon class="cls-1" points="771.75 711.38 770.9 710.8 768.79 710.48 771.75 711.38"/><path class="cls-1" d="M728.9,705.78l-3.32.55c-.37.84.49,1.41,1.73,1.13C728.13,706.9,729.36,706.63,728.9,705.78Z"/><path class="cls-1" d="M738.45,713.15c-.85-.57-.88-1.13-1.34-2l-.27,3.1Z"/><path class="cls-1" d="M728.87,713.37c-.37.84-4.87,2.24-.72,2.24C728.53,714.77,731.84,714.23,728.87,713.37Z"/><polygon class="cls-1" points="679.67 707.44 680.51 707.42 680.52 702.33 679.67 707.44"/><path class="cls-1" d="M636,719.05c3.88,1.25,1-3.13,4.45-1.59.91-1.2-2.87-1.26-1.92-2.29C636.2,716.42,635,715.7,636,719.05Z"/><path class="cls-1" d="M638.56,715.17a8.78,8.78,0,0,0,1.2-.77A3.42,3.42,0,0,0,638.56,715.17Z"/><polygon class="cls-1" points="415.91 613.35 413.51 612.24 415.03 613.99 415.91 613.35"/><path class="cls-1" d="M411.13,617l-.46-3.26-1.57,2.89C409.66,616.5,410.74,616.26,411.13,617Z"/><path class="cls-1" d="M480.72,712.35l.35-.72c-.24-.91-.84-1.1-2-1.48Z"/><polygon class="cls-1" points="445.85 699.74 446.43 700.05 446.43 696.87 445.85 699.74"/><path class="cls-1" d="M413.33,670.55c.29,2.3,1.7,4.68,2.44,6.81a9.23,9.23,0,0,1-.79-5.62C415.1,670.47,415.09,669.92,413.33,670.55Z"/><path class="cls-1" d="M755.52,184.15c.83.17.21-2.71.27-3.25C754.53,181.69,755.64,184.9,755.52,184.15Z"/><polygon class="cls-1" points="743.07 192.2 743.17 190.99 741.54 194.11 743.07 192.2"/><path class="cls-1" d="M730.71,193.49c1.69,4.84,4.39-1.29,6.78.24l.48,1.1.56-4.11C735.93,191.64,732.74,194.67,730.71,193.49Z"/><path class="cls-1" d="M723,183.46c.6,1.89-1.25,1.81,1.59.44a4.45,4.45,0,0,1-.32-.46A4.1,4.1,0,0,1,723,183.46Z"/><path class="cls-1" d="M724.28,183.44c1.28-.28-1-1.53,0,0Z"/><path class="cls-1" d="M718.4,185.15l1.53-1.89c-.47-1.11-2-1.22-1.54-2.11C716.74,182.27,717.21,183.37,718.4,185.15Z"/><path class="cls-1" d="M717.14,188.94l.82-.82C717.75,187.66,717.5,187.51,717.14,188.94Z"/><path class="cls-1" d="M719.68,186.4,718,188.12c.32.78.51,2.39.8-.64C718.76,189,719,187.51,719.68,186.4Z"/><path class="cls-1" d="M720.82,187.05c1.07,1,2.38,1.55.84,3.43C724.87,189.46,724,186,720.82,187.05Z"/><path class="cls-1" d="M730.62,198.7l1.44,1.32.94-1.79C732.53,199.11,730.37,197.15,730.62,198.7Z"/><path class="cls-1" d="M707.49,183.61c0,1.07.85,2.76,1.11,4.11l1.15-1.34C709,185.72,707.73,185.17,707.49,183.61Z"/><path class="cls-1" d="M708.6,187.72l-1.71,2C708.6,189.76,708.82,188.87,708.6,187.72Z"/><polygon class="cls-1" points="717.39 194.49 720.12 190.37 716.8 194.6 717.39 194.49"/><polygon class="cls-1" points="700.27 184.18 701.1 181.62 699.55 185.51 700.27 184.18"/><path class="cls-1" d="M695.52,185.07c.61-2.11-1.4-3.33-.68-4.66-1.27.49-2.21,2.34-3.07,4C692.75,183.44,693.91,183.55,695.52,185.07Z"/><path class="cls-1" d="M690.31,186.86a13.14,13.14,0,0,0,1.46-2.45A6.67,6.67,0,0,0,690.31,186.86Z"/><path class="cls-1" d="M703.62,189.51c-.21-.63-.65-2.28-1.78-2.88l1,2.9Z"/><path class="cls-1" d="M702.9,189.62l0-.09c-.82,0-1.38,0-1.63,0Z"/><path class="cls-1" d="M703.8,189.5h-.18C703.72,189.79,703.77,189.88,703.8,189.5Z"/><path class="cls-1" d="M712.16,192.27c-.95,1.78-3.1,3.79-.6,6.11C712.16,196.26,710.73,194.94,712.16,192.27Z"/><path class="cls-1" d="M705.09,193.13l2.08.49c-.12-.79-.59-1.9-.12-2.78Z"/><polygon class="cls-1" points="704.2 194.17 705.09 193.13 704.32 192.95 704.2 194.17"/><path class="cls-1" d="M694,189.31a3.7,3.7,0,0,1-2.74,1.9,7.53,7.53,0,0,0,3.55.55C694.89,190.81,695.22,189.09,694,189.31Z"/><path class="cls-1" d="M698.35,189.73c-.05.07-.13.11-.18.18C698.32,190.16,698.42,190.23,698.35,189.73Z"/><path class="cls-1" d="M680.69,192.12l.22.53v-.52Z"/><path class="cls-1" d="M695.06,192.3c.92.49,1.37-.29,1.77-1.25a5.24,5.24,0,0,1-2,.71C694.78,192.2,694.79,192.48,695.06,192.3Z"/><path class="cls-1" d="M687.49,188.53a10,10,0,0,0,1.65,1.5C688.61,189.13,687.58,187.74,687.49,188.53Z"/><path class="cls-1" d="M697.81,189.12a.83.83,0,0,1,.11-.15C697.58,188.37,697.64,188.67,697.81,189.12Z"/><path class="cls-1" d="M697.81,189.12a7.58,7.58,0,0,0-1,1.93,4.4,4.4,0,0,0,1.34-1.14A4.88,4.88,0,0,1,697.81,189.12Z"/><path class="cls-1" d="M679.16,211.52c-.09-2.77,2-5.52,4.21-2.73,1.76-2.23-.33-11.21-2.46-16.14.05,1.2.15,2.32-1.7,4.12.82,1.45,4.73,3.15,3.27,5.79-2.52,1.65-2.25-.79-3.66-2.14,1.39,3.34-2.93,5.29-1.92,10.3l2.17-2C679.18,209.53,678.45,210.86,679.16,211.52Z"/><path class="cls-1" d="M684.72,192.6l.79-.41c-1-.4-1.74-1.45-3.16-3.5a5.05,5.05,0,0,0-1.45,3.44l4.07,0Z"/><path class="cls-1" d="M689.18,191.86c-.36,3.07-2.21,4.51-.71,7.66,2.39-.42,1.45-2.67,2.77-4.11-3.81,1.13,1-1.78-2-3.21a5.3,5.3,0,0,1,2-1,10.34,10.34,0,0,1-2.12-1.18l.1.18h0v0c.2.36.28.59.07.39,0,0-.06.05-.08.07a5.92,5.92,0,0,1-.07,1.14c-1.18-.51-.25-.75.07-1.14,0-.16,0-.3,0-.46l0,0-3.73,2C686.37,192.54,687.39,192.38,689.18,191.86Z"/><path class="cls-1" d="M710.12,205a1.56,1.56,0,0,1-.19-.68C709.71,204.74,709.64,205,710.12,205Z"/><path class="cls-1" d="M708.34,203.38c.24-.45.36-1.67,1.31-1.45.89.82.14,1.44.28,2.42.47-.85,1.73-2.34-.16-3.64l-.23.44c-1.67-.88-4-4.43-3.81-4.87A33.05,33.05,0,0,0,708.34,203.38Z"/><path class="cls-1" d="M698.7,198.4l-3.1,1.78,1.89,2.44-.23-1.55C699.16,201.5,698.59,199.62,698.7,198.4Z"/><polygon class="cls-1" points="680.19 190.66 680.34 187.44 678.87 192.09 680.19 190.66"/><polygon class="cls-1" points="676.03 191.39 675.94 188.62 674.98 190.38 676.03 191.39"/><path class="cls-1" d="M438.74,236.62l-1,.79A3,3,0,0,0,438.74,236.62Z"/><path class="cls-1" d="M445.72,236.78l.16-1.36C445.56,236.17,445.43,236.73,445.72,236.78Z"/><path class="cls-1" d="M572.81,198.81c-1.52-2.51-3.26-6.44-2.94-3.34l.58,3A1.76,1.76,0,0,1,572.81,198.81Z"/><path class="cls-1" d="M502.47,219.69l.43.9c.31-1.05.6-2,.87-2.92C503.38,218.3,502.93,219,502.47,219.69Z"/><path class="cls-1" d="M501.82,232.27l-1.9-1.91A6.73,6.73,0,0,0,501.82,232.27Z"/><path class="cls-1" d="M400.6,239.77l-1.16,3.08C401.21,242.86,400.44,241.29,400.6,239.77Z"/><path class="cls-1" d="M633.09,195.92a5.75,5.75,0,0,0-3.11-1.61C631.54,195.94,632.89,198.47,633.09,195.92Z"/><path class="cls-1" d="M441.3,204.38a2.37,2.37,0,0,0-.81,1.85A1.93,1.93,0,0,0,441.3,204.38Z"/><path class="cls-1" d="M626.53,194.57a8.53,8.53,0,0,0,.68.67,4,4,0,0,1,2.77-.93C628.82,193.1,627.55,192.38,626.53,194.57Z"/><path class="cls-1" d="M262.43,232.89c-.09-.14-.21-.21-.29-.38C262.09,232.92,262.23,233,262.43,232.89Z"/><path class="cls-1" d="M224.34,199.83a5.17,5.17,0,0,1,1.64-.12C225.7,199.48,225.21,199.47,224.34,199.83Z"/><path class="cls-1" d="M659,191.51c.87-.27.11-.34,0,0Z"/><path class="cls-1" d="M664.34,203.11a3.16,3.16,0,0,0-.24,1.5A4.22,4.22,0,0,1,664.34,203.11Z"/><path class="cls-1" d="M618.91,214.05h-.08C619.13,214.62,619.08,214.51,618.91,214.05Z"/><path class="cls-1" d="M660.48,192.77a4.24,4.24,0,0,0-1.21-.8A4.23,4.23,0,0,0,660.48,192.77Z"/><path class="cls-1" d="M660.18,191.36c.32.11.57.16.8.22C661.05,191.07,660.93,190.76,660.18,191.36Z"/><path class="cls-1" d="M657.8,191.78a2.76,2.76,0,0,1,1.47.19c-.2-.19-.28-.35-.24-.46C658.77,191.58,658.41,191.67,657.8,191.78Z"/><path class="cls-1" d="M336.69,227.92a2.45,2.45,0,0,1-.18-.29C335.56,228.86,336,228.67,336.69,227.92Z"/><path class="cls-1" d="M550.93,231.44s.06-.11.1-.14l-.14-.11Z"/><path class="cls-1" d="M547.78,233.82c1.23-3.83,2-3.39,3.11-2.63l-1.45-8.71Z"/><path class="cls-1" d="M422,237.55l2.28,2.72c-2.76,4.5-4.76,3-2.62,6.79.33-9.51,8.9-1,9.2-10.5l1.51,2c-.44-.09-.5.47-.93.38,2.94,4.54,2.15-6.88,5.92-5.54,1.31.72,2.24,2.09,1.35,3.23l2.91-2.36c.85.18.65,1.83-.2,1.65l4.46-.77,0,.28a32.81,32.81,0,0,1,2.74-4.79c1.15,1.37-.56,1-.26,2.19l2.45-2.3c1,2.46-1,4.85-2.71,4.51,2.39,9.48,2-2.38,7.06,3.08l-2.32,1.24c1.56,5.37,3.36,3.39,6.05,6.71-.66-1.75-5.39-8.39-2.73-10.8.76.71,1.76,1,3.19-.9,0,3.38,1.45,2.53,3.22,2.31l-.06,4.48c1.89-1.32,1.71-3.6,2.81-5.63,2.13.41,2.62,3.87,3.17,6.78,3.43.66-2.44-5.52,1.59-6.43,2.86,1.67,4.82-.19,8.16-2.92,2,1.52-.29,2.75.44,4l1.69-3.6c.44.08.32,1.18.26,1.73,1.45-1.4,0-4.47,2.34-5.72.52-4.93,4.92,7.11,7.68,1.43.74,1.25-.28,2.75,0,4.48,3.87-3.78,3.33-2.76,6.45-7.79l2.84,2.86c-2.12-3.3.37-7.35,2.55-10.67-.76-1.61-1.41-3-1.84-3.68l3.54-2.5c.46.72.14,2.27-.4,4.16.23-.38.46-.75.63-1.09,1.34,1.62.74,4.22-.12,6.74-.47-.87-.93-1.8-1.38-2.73-.82,2.75-1.57,5.78-1.32,8.4a2.54,2.54,0,0,1,1.16-1.24,3.83,3.83,0,0,0-.23,1.85c.14.47.49-.53,1.05-1.69l1,5,.14-2,4.84,3c3.25-5.11,6-12.57,11.27-14.8-1.21,3.71-.09,6,0,10.33-1.62-4.53-4.11,2.06-6.93,1.21,1.47.45,1.21,2.52.86,3.25l4.86-4.31c0,3.56,1.14,2.62,2.49,4-1.22-7,3.55-4.81,5.5-7,.21,2.34-.19,4.77-2.68,4.29,2.91,5.17,3.23-8.36,6.06-4-.6.07-.94-.27-1.13.94,1.33-2.15,4.83-.62,4.1,1.45l-.6.07c4,.68,12.2-.41,12.55-6.38.07.77-.23,7.19-.43,8.4l6.29-20.29c-.41,5.14,2.54,17.21-.66,20.23,1,.68,2.2,1.5,4.14-.4-.69-.7-1.95-7.31-1.08-7.82,2.68,5.56,1.82,3,5,7.65-1-1-.31-9.11,1.24-8.92-.19,1.2.49,7.89,0,8.75l3.46-8.05c-.89,1.46.15,6.67,1.11,8.86-.47-1.53,3.33,0,4.31-.86l-1.71-1.74c4.39,1,3.72-11.27,8-11.07-.43,1.65-.77,10.06,1.47,10.94.79-4.08,3.41-19.59,7-22.88l.85,2.27,2.75-2.78c-1.45,6.16-5.84,19.16-8.37,24.26,1.72,1.74.6,2.69,3,2.36,1,2.11-1.15,3.34-1.86,3.5l5.74,1.11c-.51-4.68,4.07-4.94,3.63-8.85l-5.87,5.2c-.5-4.7,2.82-13.48,6.85-12.93,1.12,1.81-.29,8.41-.12,10,.43-1.65,3.62-3.33,4.06-2.2l-1.55,2.62c2.33,1.62,3.27-6.46,6.21-2.14.94.25,3.12,5.88,3.12,3.09-1.84-5.27-3.12-21.83-2.37-25.92.34.35,5.13,4.83,6.35,7.41,1.78,4.12-1.66,10.16-.14,13.69a7.92,7.92,0,0,1,1-3.45c1,1-.15,4,1.92,3.29,0-4.78,4.31.13.74-4.09,2-1.49,2.25.85,4.66.49-1-3,1.49-10.6,3.45-12.09a9.86,9.86,0,0,0,.8,3.47c4.23.19,6.64,2.14,10.57,1.91.44,1.12,2.44,2.38,1.77,4.49.51-.89.91-2.54,2.12-2.74,2.64,3.94-2.66.83-.52,5.65,0-2.78,2.87-4.05,4.47-5.9-.85-4.24-4.05-.53-5.66,1.32-.42-5.89,2.15-12.28,6-15.3,3.14-1.71,1.69,3.7,2.19,2.82,6.19.58,4.42-10.66,9.81-6.78,2.3,3.6.67,7.45,1.32,10.12-2.54,1.62-4.25-2.08-6-1.8l2.34,1.62c-.75,1.31-2.45,2.38-3.49,1.37,1.94,3.23,10.38-.08,15.35,2.62.74-1.33,2.08-2.76,1.27-4.21l-1.45.65c-1.61-2.91,2.47-4.42.47-5.67,1.83-2.3,3.79-5.83,6.74-4.36l.88,4.23c-.16-1.25-2.05-2.39-2.73-1,1-2,4.8,5.42,5.61-.29L667.75,200c1.83-2.32,3.91-7.07,6.51-5.94-1.49-4.12-.53.54-2.72-4.25,2.06,6-6.37.28-3.37,6.53-2.29-5.58-3.34-2.16-6.11-6.86.19,1.41,1.06,2.63-1.08,2.11a8,8,0,0,1-.35,1.29.78.78,0,0,1-.15-.1,1.83,1.83,0,0,0,.13.16c-.08.22-.08.27,0,0a5.25,5.25,0,0,1,1.24,2.06c-.77,3.33-4.1,3.51-5.09,5.28-1.29-.57.39-1.66-.41-3.11l-1.47,2.65c-.42-3.12-3.71-5-.93-7l-2.64.06c-1.68-1.65-3.86-2.19-5.07-.78-1.28-.58-2.86,3.7-2,1.17l-4,2.24-.09-.78c-4.09-.09-8,5.81-13,.49-1.31.89-2.66,2-5,1.24l-.63-2.68c-1.69,1.08-5.45-2.38-6,.5-2.37-7.19-8.61-1.07-11.78-2.18l.1,3.55c-2.14-.06-4.12,1.07-6.67,2.65l.35,3.12c-2.13,2.71-6-1.86-9.58-1.32.18-1.21,1.11-1,1.8-.27-4.69-6.8-8.8,5.62-13,.67-.92,1.19-1.64.84-2.36.09a.39.39,0,0,0,.23-.18,1.26,1.26,0,0,0-.4,0c-.46-.52-.94-1.12-1.44-1.6a6.62,6.62,0,0,0,1.22,1.62,6.69,6.69,0,0,0-2.94,1.39l-.64-3.34c-.09.05-.17.05-.26.11-1.15-1.19-.8,1.64-.09,4.14a7.56,7.56,0,0,0-1.37,2.1c-1.16-5.39-2.85,2-4.34-3.75-.62,2.86-5.51,2.4-5.84,8.39-.07-.78-.42-1.13.19-1.22-1.28-.61-2.56-1.22-3.6.51l-.72-4.26L552,210.38c-1.77-2.54-2.52-4-1-7.39-3.75,5.22-3.13,2-6.3,7.18l0-2.77c-1.2.15-3,3.94-3.8,1.67-2.9-5.16-13.38-.21-20.46-4.85,1.61,8.12-3.33-3.53-3.41,2.78-.46-1.91-1.46-3-.39-4.68-3.47,2-5.39-2.92-7.67,2.47-.46-1.92.67-2.84.28-4-.27.42-1.07,1.71-1.47.56s.47-1.63,1-2.48c-3.59.42-3.79,6.37-3.9,12-1.9-2.59-2.8-2.2-4,1.5-.68-1.81-1.79-3.69.43-4.41-1.27-.23-7.77-2.47-7.79,2-.42-1.13-1.77-.29-2.1.24-2.83-.2-3.09-.59-5.86-.09l.78.7c-1,5.44-2.29,1.26-4.52,1.94l.05-.55c-5.21-3.82-2.18,1.9-7.34-2.47l.33,3.35c-.35,7.23-4.57-4.19-7.47-1.39l1.1,1.91c-1.58,2.49-4.64-9.76-6.26-10.64-.36-.62.54-1,1-1.48-4.28-4.2-.49,4.4-3.63,5.47-.61-2.36.68-6-1.44-6.45-1.07-1.91-6.06,7.81-9,3.27.65,1.82,1.3,3.64-.15,5-2.24.66-6.11-6.89-8.1-1.11a3.19,3.19,0,0,1-.41-1.44c-1.7,1.49-5.55,2.49-6.58,5.62-1.61-11.59-10.66,5.67-10.62-5l-5.27.59.14-1.1c-3.37-.7-4.57,1.83-5.76,4.39-.78-.73-.21-1.73-.14-2.28-4.91-2.2-5.4-1.75-9.57,3.55l-.4-3.48c-1.14,2-7.07-5.5-11.93-1.5a3.17,3.17,0,0,1,.55-1.55c-2.74,2-6-.41-8.76-1.78s-5.18-1.71-6.28,4.59l-3.64,3c4.63,1.07-.79,5.47,1.09,7.6-1.85.71-4.66-3.9-2.4-4.51l.34.64c.94-6.57-5.73-2.45-5.52-6.93-9.14.14-17.94-3.65-26.46-4.25l.83,5.15-3-.39c-.75-1.21-.93-4,1.19-3.76-1-2.93-3.64,2.32-3.73,3.43-4.1-2.2,1.81-5.92.53-6.08l-1.74.33.37.61c-1.47,2-1.66,4.26-4.21,3.93-1.58-1.08-.73-3.19-1.36-3.4,0-.37-.19-.55-1-.19l-3.73-.55,1.36,4.09c-1.73,1.94-3.53-.33-2,4.3-1.15-3.57-4.63-4.31-8-4.44s-6.66.27-7.39-.86c-2.45,2.84-4.76,2.69-7.59,2.21.67.87.9,5.43-1.54,4.77,1.31-9.33-4.33-4.26-6-11.09,1.57,4.55-7,.8-4.55,7.27-2-.85,0-3.52-1.41-5.79-5.06,3.45-10.63-2.89-16.71-2-.16,1.23.75,3.16-.64,4.92L266.2,200c-1.22.54-1.49,7-3.43,2.65.25,1.05.63,2.64-.2,3-5.74-3.33-11.84-2.41-17.93-2.22s-12.17-.34-17.77-6.36c1.46,2.49.36,2.65-.89,2.66.77.62-.22,3-.18,4.71l-4.7-5c-1.24,4.55-5.4-.05-6.24,4.33l1.65-.69c-2.49,5.07,2.14,11.78,1.36,18.45,2.79-5.77,5.68,9.2,10.17,1,.78,1.43-.88,2.11-.52,3.69,1.19-2.8,2.42-3.32,4.56-1.89l-.3.7c6.28-.3,8.77,2.75,15.68,5.05l-.32-3.34c1.48.52,1.73,1.58,2.39,2.45,2-4.92-4.22-.52-2.31-6,1.6,6.85,10.61.69,11.53,8.42,2.32.17-.47-3.87,1.85-3.69l.5,2.1.73-2.64c1.5.53,2.12,3.16,2.08,4.92-.35-.23-1.07.43-1.48.56,1.85,2.55,5.62-.52,6.25.31l-2.16-1.4c6.43-1.59,14,1.58,20.36-2.41l-.4-1.58c4.81-2.68,3.67,1.88,8.85.77l-.2.36c1.1-1.51,2.5-2.24,3.89-2-1.37,1.78,2.29,3.66.5,5.62,5.2-2.89,2.62-2.33,6.19-8l.67,2.64c1.23-2.31,1.38-3.54,4-4.1-2.19,2.14,1.48,4-1,6.86,5.16,5.93,8.19-5.43,10.36,3,2.72-7.1-4.51-4.14-3.07-5.63-1.07-2.38,2.23-5.3,3.89-4.53,1.7.22,2.59,9.29,6.92,9.28-.43,0-.48.5-.9.45,1.55,1.89,3.25-2.38,5.13.66,1.25-4.31,2.57.33,3.06-5.19l-4,1.15c2.3-1.38,4.6-7.79,8.19-4.53a9.82,9.82,0,0,1-2.24,3.34c1,1.67,2.11-1,3.19.7-.48,5.53-4.85,1-7.39,5.2,1.09,2.37,4.68-3.87,3.29,2.09,2-7.57,4.23,1.11,7.33-4.63l-.29,3.31c.48-.51,1.48-2,2.33-1.93l-1.66,4.25c2.47-3.59,4.49,3.38,6.82,1.41-4.77,0-1-4-2.92-6.5,6-4.31,3.16,8.76,9.79,7.3-.9.46-3.3-2.06-1.87-3.57a8.47,8.47,0,0,1,3.59,3.78c4.38-.61-.59-3.43,1.31-5.44,1.4,4.08,2.18-1.6,4.11-2.86l-.05,3.38c4.92,2.27,1.45-7,5.87-4.3l-2,4.64,2.35-1.16-.55,3.83c2.59-2.8,3.36-2,5.83-.92-.53-2.38.43-6.12,2.63-6.18,1.46,2-.89,3.19,2.23,2.77-.73,2.1-1.55,4.74-2.86,1.6-.15,1.1-.72,2.1-.89,3.19,1.59,2.34,4.06.61,5.19.6a1.94,1.94,0,0,1-1.21-.81l4.59-4.63c.69,1.27.12,2.29-.46,3.29.92-.37,1.58-1.91,2.93-2.19-.39,2.74-.34,5.57-2.26,6.85l4.35-3c.27,1.2,2.18,3.3,1.6,4.3,2.38,1.64,5.93-5.27,9.08-3.12a2.43,2.43,0,0,1,1.18-1.42c3,.65,5.59,4,9.14.31l2,4.93c2.77-1.09-2.69-6.22,1.92-8,3.26-1.54,1.2,4.21,2.34,5.58,1.63-2.48,4.45-7.54,7.44-3.54C423.73,237.91,423,237.18,422,237.55Zm34.07-2.35c-.66.72-2,2.93-2.45.94C454.36,232.26,455,234.1,456.1,235.2ZM507.64,226c-.46,1.13-1.23.6-2.12-.66C506.13,225.09,506.84,225.19,507.64,226Zm141.84-31a.85.85,0,0,0-.06.17C647.87,194,648.42,194.47,649.48,195Zm3.13,1.24a1.61,1.61,0,0,0,0-1.42c-.14.87-.81,1-1.6.8C651.33,196.5,651.77,197.08,652.61,196.26Zm-324.79,8.63.56.91C327,206.73,327.42,205.86,327.82,204.89Z"/><path class="cls-1" d="M501.91,230.81a7.62,7.62,0,0,1-.33-1.82A1.6,1.6,0,0,0,501.91,230.81Z"/><path class="cls-1" d="M400.81,239.21s-.07,0-.1-.05a3.26,3.26,0,0,0-.11.61Z"/><path class="cls-1" d="M607.63,228.1a3.69,3.69,0,0,1-1.32-1.67A1.51,1.51,0,0,0,607.63,228.1Z"/><path class="cls-1" d="M668.11,189.21l-1.85,1c.91-.25,1.31.46,1.83.95C668,190.42,667.51,189.31,668.11,189.21Z"/><path class="cls-1" d="M686.71,208.6c.25-.44.6-.1.84-.54l-.21-1.56C686.14,206.71,685.41,208,686.71,208.6Z"/><path class="cls-1" d="M670.84,200.23c.4,2.82,1.53,1.76,2.84,1.12a.4.4,0,0,1-.24,0C673.5,197.38,672.17,198.81,670.84,200.23Z"/><path class="cls-1" d="M674,201.22a2.05,2.05,0,0,1,1.24-.17C675.26,199.45,674.7,200.76,674,201.22Z"/><path class="cls-1" d="M656.29,194.08c.7.67.11-3.65.56-2.53C657.28,187.88,652.93,196.27,656.29,194.08Z"/><polygon class="cls-1" points="672.73 209.47 671.95 206.01 671.43 208.9 672.73 209.47"/><path class="cls-1" d="M661.79,207.81l2.25.79a1.32,1.32,0,0,1,.48-1.24C663.17,207.35,661.65,206.79,661.79,207.81Z"/><path class="cls-1" d="M664.52,207.36a1.75,1.75,0,0,0,1.7-.73A3.64,3.64,0,0,0,664.52,207.36Z"/><polygon class="cls-1" points="669.85 210.77 669.15 210.09 667.59 209.97 669.85 210.77"/><path class="cls-1" d="M638.38,208.93l-2.3,1.17c-.15,1.22.55,1.91,1.4,1.37C638,210.59,638.83,210.06,638.38,208.93Z"/><path class="cls-1" d="M646.28,218A6.61,6.61,0,0,1,645,215.4l.25,4.34Z"/><path class="cls-1" d="M639.42,219.5c-.15,1.22-3.21,3.7-.21,3.21C639.37,221.5,641.68,220.33,639.42,219.5Z"/><polygon class="cls-1" points="603.21 216.42 603.81 216.33 603.29 209.22 603.21 216.42"/><path class="cls-1" d="M572.49,235.22c2.92,1.56.45-4.43,3.11-2.43.58-1.72-2.18-1.63-1.57-3.12C572.41,231.53,571.46,230.58,572.49,235.22Z"/><path class="cls-1" d="M574,229.67a8.38,8.38,0,0,0,.82-1.12A3.39,3.39,0,0,0,574,229.67Z"/><polygon class="cls-1" points="218.01 195.57 216.31 193.97 217.31 196.43 218.01 195.57"/><path class="cls-1" d="M214.17,200.61l-.09-4.56-1.38,4C213.12,199.91,213.94,199.57,214.17,200.61Z"/><path class="cls-1" d="M461.27,244.28l.13-1.1c-.3-1.18-.73-1.26-1.59-1.43Z"/><polygon class="cls-1" points="436.46 241.07 436.88 241.17 436.07 237.06 436.46 241.07"/><path class="cls-1" d="M415.65,246.37c.85.18,1.85-.74,2.7-.56C416.5,246.56,415.43,241.24,415.65,246.37Z"/></g></g></svg>